<svg id="Layer_1" data-name="Layer 1" xmlns="http://www.w3.org/2000/svg" viewBox="0 0 2403 560"><defs><style>.cls-1{fill:#211f1f;}</style></defs><title>agency</title><path class="cls-1" d="M776.51,446H749.66l-3.19,7.39a16.51,16.51,0,0,0-1.57,6.12,5.09,5.09,0,0,0,2.58,4.71q1.51.9,7.45,1.35v2.07H729.65v-2.07a11.32,11.32,0,0,0,6.73-3.4q2.64-2.77,6.5-11.47l27.19-60.65h1.07l27.41,62.33q3.92,8.85,6.45,11.16a8.87,8.87,0,0,0,5.38,2v2.07H773.6v-2.07h1.52c2.95,0,5-.42,6.23-1.24a3,3,0,0,0,1.23-2.57,6.94,6.94,0,0,0-.33-2.08c-.07-.33-.64-1.73-1.69-4.2l-4-9.47m-1.9-4.15-11.33-26.18-11.66,26.18Z"/><path class="cls-1" d="M861.56,415.23v41c0,4,.37,6.49,1.12,7.49s2.25,1.62,4.54,1.88v2H845.86v-7a26.84,26.84,0,0,1-7.52,6.52,17.24,17.24,0,0,1-8.4,2,12.36,12.36,0,0,1-7.88-2.72,13.26,13.26,0,0,1-4.62-6.36q-1.17-3.64-1.17-12.72v-20.8q0-5.94-1.1-7.4c-.73-1-2.25-1.6-4.56-1.9v-2.08H832v35.82c0,3.74.17,6.15.53,7.23a4.7,4.7,0,0,0,1.68,2.47,4.37,4.37,0,0,0,2.67.84,6.47,6.47,0,0,0,3.64-1.07,23,23,0,0,0,5.38-5.88v-28q0-5.94-1.1-7.4c-.73-1-2.25-1.6-4.56-1.9v-2.08h21.35"/><path class="cls-1" d="M905.63,413.78l.84,17.88h-1.91q-3.43-8-7.09-10.88a11.77,11.77,0,0,0-7.31-2.92,5.52,5.52,0,0,0-3.93,1.54A4.81,4.81,0,0,0,884.6,423a4.64,4.64,0,0,0,1.12,2.92q1.79,2.29,10,7.87t10.85,9.48a15.37,15.37,0,0,1,2.6,8.71,18.32,18.32,0,0,1-2.19,8.57,15.29,15.29,0,0,1-6.16,6.45,17.66,17.66,0,0,1-8.81,2.24c-2.5,0-5.85-.78-10-2.36a8.42,8.42,0,0,0-2.31-.61c-1.23,0-2.26.93-3.08,2.8h-1.86l-.9-18.84h1.91q2.51,7.4,6.92,11.1t8.33,3.69a6,6,0,0,0,4.4-1.65,5.35,5.35,0,0,0,1.71-4,6.93,6.93,0,0,0-1.68-4.66q-1.68-2-7.52-5.94-8.57-5.94-11.09-9.09a15.82,15.82,0,0,1-3.71-10.14,16.46,16.46,0,0,1,4.17-11q4.18-4.92,12.09-4.91a17.66,17.66,0,0,1,8.23,2.07,5.46,5.46,0,0,0,2.47.84,2.89,2.89,0,0,0,1.63-.42,10.93,10.93,0,0,0,2-2.38h1.91"/><path class="cls-1" d="M938,396.07v19.17h12.44v5.55H938v32.34a25,25,0,0,0,.42,5.86,4.21,4.21,0,0,0,1.48,2.12,3.33,3.33,0,0,0,2,.81q3.64,0,6.9-5.54l1.68,1.23q-4.53,10.76-14.73,10.76a13,13,0,0,1-8.45-2.78,12.26,12.26,0,0,1-4.4-6.19q-.56-1.91-.56-10.31V420.78h-6.84v-2a71.75,71.75,0,0,0,12-10.48,64,64,0,0,0,8.67-12.28H938"/><path class="cls-1" d="M977.14,415.23v11.88q5.22-8.12,9.14-10.78a13.49,13.49,0,0,1,7.57-2.67,6.7,6.7,0,0,1,5,1.93,7.55,7.55,0,0,1,1.88,5.47,8.51,8.51,0,0,1-1.83,5.83,5.64,5.64,0,0,1-4.4,2.08,7.58,7.58,0,0,1-5.16-1.91,30.25,30.25,0,0,0-2.58-2.12,2.35,2.35,0,0,0-1.28-.34,4.71,4.71,0,0,0-3.09,1.24,11.6,11.6,0,0,0-3.48,5.43,38.08,38.08,0,0,0-1.79,12v12.06l.06,3.14a13.17,13.17,0,0,0,.38,4.09,4.48,4.48,0,0,0,2,2.22,11.77,11.77,0,0,0,4.45.87v2H955.73v-2c2.27-.18,3.82-.81,4.62-1.88s1.21-3.88,1.21-8.43v-29a21.68,21.68,0,0,0-.45-5.72,4.54,4.54,0,0,0-1.62-2.3,8.7,8.7,0,0,0-3.76-1v-2.08h21.41"/><path class="cls-1" d="M1033,459.92q-9.58,8.46-17.21,8.46a10.17,10.17,0,0,1-7.45-2.94,9.94,9.94,0,0,1-3-7.38q0-6,5.16-10.78T1033,434.51v-5.26q0-5.94-.64-7.49a6.12,6.12,0,0,0-2.45-2.69,7.31,7.31,0,0,0-4-1.15,10.27,10.27,0,0,0-6,1.63,2.83,2.83,0,0,0-1.46,2.35,4.86,4.86,0,0,0,1.57,2.91,7.2,7.2,0,0,1,2.14,4.65,6.2,6.2,0,0,1-2.05,4.68,7.47,7.47,0,0,1-5.35,1.93,8.52,8.52,0,0,1-5.91-2.12,6.5,6.5,0,0,1-2.38-5,11.59,11.59,0,0,1,3.19-7.71,20.15,20.15,0,0,1,8.91-5.64,36.48,36.48,0,0,1,11.88-2q7.45,0,11.8,3.17a14.82,14.82,0,0,1,5.63,6.87q.78,2.35.79,10.82v20.35a20.8,20.8,0,0,0,.28,4.52,2.68,2.68,0,0,0,.84,1.37,2,2,0,0,0,1.29.45c1,0,2-.68,3-2.07l1.68,1.35a20.41,20.41,0,0,1-5.8,6,12.5,12.5,0,0,1-6.81,1.88,10.57,10.57,0,0,1-7-2.1,9.47,9.47,0,0,1-3.09-6.35m0-4.1V438.27a32.77,32.77,0,0,0-10.09,8.52,10.41,10.41,0,0,0-2.19,6.11,6.39,6.39,0,0,0,1.86,4.54,5.05,5.05,0,0,0,3.92,1.52Q1029.29,459,1033,455.82Z"/><path class="cls-1" d="M1079.69,391.63v65.14q0,5.54,1.28,7.09c.87,1,2.54,1.61,5,1.76v2h-28.3v-2a6.85,6.85,0,0,0,5.15-2c.74-.85,1.13-3.14,1.13-6.83V402.51c0-3.66-.44-6-1.3-7s-2.52-1.62-5-1.77v-2.07h22"/><path class="cls-1" d="M1111.52,415.23v41.55q0,5.54,1.29,7.09t5,1.76v2h-28.31v-2a6.83,6.83,0,0,0,5.15-2c.75-.85,1.13-3.14,1.13-6.83V426.17q0-5.56-1.29-7.09c-.86-1-2.53-1.61-5-1.76v-2.08h22m-7.85-25.39a8.66,8.66,0,0,1,8.69,8.69,8.26,8.26,0,0,1-2.55,6.11,8.42,8.42,0,0,1-6.14,2.52,8.6,8.6,0,0,1-8.62-8.63,8.42,8.42,0,0,1,2.52-6.14A8.27,8.27,0,0,1,1103.67,389.84Z"/><path class="cls-1" d="M1151.88,459.92q-9.57,8.46-17.2,8.46a10.2,10.2,0,0,1-7.46-2.94,10,10,0,0,1-3-7.38q0-6,5.16-10.78t22.47-12.76v-5.26q0-5.94-.64-7.49a6.07,6.07,0,0,0-2.43-2.69,7.32,7.32,0,0,0-4-1.15,10.29,10.29,0,0,0-6,1.63,2.85,2.85,0,0,0-1.46,2.35,4.84,4.84,0,0,0,1.57,2.91,7.19,7.19,0,0,1,2.13,4.65,6.19,6.19,0,0,1-2,4.68,7.44,7.44,0,0,1-5.35,1.93,8.53,8.53,0,0,1-5.91-2.12,6.5,6.5,0,0,1-2.38-5,11.61,11.61,0,0,1,3.19-7.71,20.18,20.18,0,0,1,8.91-5.64,36.6,36.6,0,0,1,11.89-2q7.44,0,11.8,3.17a15,15,0,0,1,5.64,6.87c.52,1.57.77,5.18.77,10.82v20.35a21.69,21.69,0,0,0,.28,4.52,2.7,2.7,0,0,0,.85,1.37,2,2,0,0,0,1.29.45c1,0,2-.68,3-2.07l1.68,1.35a20.28,20.28,0,0,1-5.81,6,12.48,12.48,0,0,1-6.81,1.88,10.56,10.56,0,0,1-7-2.1,9.53,9.53,0,0,1-3.09-6.35m0-4.1V438.27a33.1,33.1,0,0,0-10.09,8.52,10.41,10.41,0,0,0-2.18,6.11,6.38,6.38,0,0,0,1.85,4.54,5.05,5.05,0,0,0,3.92,1.52Q1148.18,459,1151.88,455.82Z"/><path class="cls-1" d="M1201.78,415.23V422a30.82,30.82,0,0,1,7.73-6.35,16.44,16.44,0,0,1,8-2,12.75,12.75,0,0,1,8.47,2.83,13.64,13.64,0,0,1,4.49,7q.88,3.2.89,12.28v20.41c0,4,.37,6.54,1.09,7.54s2.25,1.62,4.57,1.88v2h-26.51v-2a5.54,5.54,0,0,0,4.26-2.47q.9-1.39.9-7V432.89q0-6.44-.52-8.13a4.85,4.85,0,0,0-1.7-2.6,4.27,4.27,0,0,0-2.66-.93q-4.83,0-9,6.9v28.08q0,5.88,1.09,7.45c.73,1,2.08,1.71,4.06,2v2h-26.51v-2a6.53,6.53,0,0,0,4.71-2.12q.95-1.23,1-7.29v-29.6q0-5.94-1.09-7.4c-.73-1-2.25-1.6-4.57-1.9v-2.08h21.36"/><path class="cls-1" d="M1270.56,467.65v-2.07h2.52a10.21,10.21,0,0,0,5.07-1,6.36,6.36,0,0,0,2.61-2.83c.34-.79.5-3.14.5-7.07v-50c0-3.89-.2-6.31-.61-7.29a5.66,5.66,0,0,0-2.5-2.54,10,10,0,0,0-5.07-1.1h-2.52v-2.07h34q13.63,0,21.92,3.71a32.39,32.39,0,0,1,15.39,13.73,43.83,43.83,0,0,1,2.67,35.57,34.12,34.12,0,0,1-6.68,11.16,32.76,32.76,0,0,1-9.45,7.06,50.39,50.39,0,0,1-13.09,4.12,61.27,61.27,0,0,1-10.76.67h-34m29-71.7v59.31q0,4.71.45,5.77a3.18,3.18,0,0,0,1.52,1.63,9.17,9.17,0,0,0,4.36.84q9.36,0,14.3-6.4,6.72-8.63,6.73-26.79,0-14.64-4.61-23.38-3.63-6.84-9.35-9.3Q1308.9,395.89,1299.54,395.95Z"/><path class="cls-1" d="M1374,415.23v41.55q0,5.54,1.3,7.09c.85,1,2.54,1.61,5.05,1.76v2H1352v-2a6.84,6.84,0,0,0,5.16-2c.74-.85,1.12-3.14,1.12-6.83V426.17q0-5.56-1.28-7.09c-.87-1-2.53-1.61-5-1.76v-2.08h22m-7.84-25.39a8.66,8.66,0,0,1,8.69,8.69,8.29,8.29,0,0,1-2.55,6.11,8.43,8.43,0,0,1-6.14,2.52,8.66,8.66,0,0,1,0-17.32Z"/><path class="cls-1" d="M1419,415.85h17.66V422h-10a19.6,19.6,0,0,1,3.81,5,15.37,15.37,0,0,1,1.34,6.33,15.71,15.71,0,0,1-3.1,9.73,20.79,20.79,0,0,1-8.47,6.45,24.37,24.37,0,0,1-9.5,2.33l-6.73-.29a5.84,5.84,0,0,0-4.23,1.66,5.31,5.31,0,0,0-1.71,4,4.13,4.13,0,0,0,1.54,3.31c1,.87,2.7,1.29,5,1.29l9.69-.12q11.77,0,16.2,2.58a11.83,11.83,0,0,1,6.34,11,14.19,14.19,0,0,1-2.91,8.66,17.11,17.11,0,0,1-7.69,5.75,46.53,46.53,0,0,1-16.64,2.74,56,56,0,0,1-12.89-1.37c-3.9-.92-6.68-2.19-8.36-3.81a7.15,7.15,0,0,1-2.52-5.14,6.55,6.55,0,0,1,1.93-4.62q1.93-2,7.21-3.45-7.29-3.59-7.3-10a11.82,11.82,0,0,1,3-7.52q3-3.64,9.42-6.33-7.53-2.74-10.88-7.23a16.83,16.83,0,0,1-3.36-10.37q0-7.69,6.28-13.31t16.14-5.64a29.11,29.11,0,0,1,10.76,2.19m-13,59.53q-5.71,0-7.57,1-3.2,1.73-3.19,4.71t3.31,5.18c2.19,1.56,6.35,2.33,12.43,2.33q7.8,0,12.25-2.07c3-1.39,4.46-3.33,4.46-5.83a3.35,3.35,0,0,0-.84-2.35,8,8,0,0,0-4.57-2.31Q1419.27,475.39,1406,475.38Zm3.31-58.24c-2.17,0-4,1.09-5.5,3.28s-2.24,6.72-2.24,13.59c0,5.57.73,9.39,2.22,11.47s3.22,3.11,5.24,3.11a6.73,6.73,0,0,0,5.61-3.09c1.48-2,2.24-6.05,2.24-12q0-10-2.53-13.68A5.72,5.72,0,0,0,1409.36,417.14Z"/><path class="cls-1" d="M1463.28,415.23v41.55q0,5.54,1.29,7.09t5,1.76v2h-28.31v-2a6.83,6.83,0,0,0,5.15-2c.75-.85,1.12-3.14,1.12-6.83V426.17c0-3.71-.42-6.07-1.28-7.09s-2.53-1.61-5-1.76v-2.08h22m-7.85-25.39a8.66,8.66,0,0,1,8.69,8.69,8.26,8.26,0,0,1-2.55,6.11,8.44,8.44,0,0,1-6.14,2.52,8.61,8.61,0,0,1-8.63-8.63,8.46,8.46,0,0,1,2.52-6.14A8.31,8.31,0,0,1,1455.43,389.84Z"/><path class="cls-1" d="M1495.51,396.07v19.17H1508v5.55h-12.45v32.34a24,24,0,0,0,.43,5.86,4.15,4.15,0,0,0,1.49,2.12,3.25,3.25,0,0,0,2,.81q3.65,0,6.9-5.54l1.68,1.23q-4.55,10.76-14.74,10.76a13,13,0,0,1-8.44-2.78,12.23,12.23,0,0,1-4.4-6.19q-.56-1.91-.56-10.31V420.78H1473v-2a72.53,72.53,0,0,0,12-10.48,64.05,64.05,0,0,0,8.66-12.28h1.84"/><path class="cls-1" d="M1541.88,459.92q-9.58,8.46-17.22,8.46a10.17,10.17,0,0,1-7.45-2.94,10,10,0,0,1-3-7.38q0-6,5.16-10.78t22.48-12.76v-5.26c0-4-.22-6.46-.64-7.49a6.13,6.13,0,0,0-2.45-2.69,7.32,7.32,0,0,0-4-1.15,10.29,10.29,0,0,0-6,1.63,2.83,2.83,0,0,0-1.46,2.35,4.84,4.84,0,0,0,1.57,2.91,7.21,7.21,0,0,1,2.14,4.65,6.23,6.23,0,0,1-2,4.68,7.47,7.47,0,0,1-5.35,1.93,8.54,8.54,0,0,1-5.92-2.12,6.5,6.5,0,0,1-2.38-5,11.61,11.61,0,0,1,3.19-7.71,20.21,20.21,0,0,1,8.92-5.64,36.45,36.45,0,0,1,11.88-2q7.45,0,11.8,3.17a14.83,14.83,0,0,1,5.63,6.87c.52,1.57.79,5.18.79,10.82v20.35a20.25,20.25,0,0,0,.28,4.52,2.69,2.69,0,0,0,.84,1.37,2,2,0,0,0,1.29.45c1,0,2-.68,3-2.07l1.68,1.35a20.4,20.4,0,0,1-5.8,6,12.5,12.5,0,0,1-6.81,1.88,10.6,10.6,0,0,1-7-2.1,9.43,9.43,0,0,1-3.08-6.35m0-4.1V438.27a32.73,32.73,0,0,0-10.09,8.52,10.36,10.36,0,0,0-2.19,6.11,6.42,6.42,0,0,0,1.85,4.54,5.07,5.07,0,0,0,3.92,1.52Q1538.17,459,1541.88,455.82Z"/><path class="cls-1" d="M1590.88,391.63v65.14c0,3.69.42,6.05,1.28,7.09s2.54,1.61,5,1.76v2H1568.9v-2a6.86,6.86,0,0,0,5.16-2c.73-.85,1.12-3.14,1.12-6.83V402.51c0-3.66-.44-6-1.29-7s-2.52-1.62-5-1.77v-2.07h22"/><path class="cls-1" d="M1658.47,431.1v23.54c0,3.89.22,6.32.64,7.28a5.78,5.78,0,0,0,2.52,2.55,10,10,0,0,0,5.09,1.1h2.52v2.07H1629.5v-2.07H1632a10.57,10.57,0,0,0,5.32-1.17,5.25,5.25,0,0,0,2.25-2.69c.4-.9.6-3.26.6-7.07v-50c0-3.89-.2-6.31-.6-7.29a5.71,5.71,0,0,0-2.5-2.54,10,10,0,0,0-5.07-1.1h-2.52v-2.07h39.74v2.07h-2.52a10.44,10.44,0,0,0-5.33,1.18,5.37,5.37,0,0,0-2.3,2.69q-.62,1.35-.62,7.06v21.53h26.86V404.64c0-3.89-.22-6.31-.62-7.29a5.71,5.71,0,0,0-2.52-2.54,10.22,10.22,0,0,0-5.11-1.1h-2.46v-2.07h39.69v2.07h-2.47a10.27,10.27,0,0,0-5.33,1.18,5.3,5.3,0,0,0-2.29,2.69c-.42.9-.62,3.25-.62,7.06v50c0,3.89.2,6.32.62,7.28a5.46,5.46,0,0,0,2.52,2.55,10.1,10.1,0,0,0,5.1,1.1h2.47v2.07h-39.69v-2.07h2.46a10.38,10.38,0,0,0,5.33-1.17,5.47,5.47,0,0,0,2.3-2.69c.4-.9.62-3.26.62-7.07V431.1h-26.86"/><path class="cls-1" d="M1760,439.57h-28.76q.51,10.43,5.56,16.48a11.68,11.68,0,0,0,9.3,4.66,10.55,10.55,0,0,0,6.1-1.88c1.84-1.25,3.79-3.5,5.9-6.76l1.9,1.24q-4.26,8.7-9.42,12.3a20.27,20.27,0,0,1-11.94,3.62q-11.65,0-17.66-9-4.81-7.22-4.81-17.94,0-13.11,7.09-20.88t16.61-7.76q8,0,13.82,6.53t6.31,19.37m-13.79-3.76q0-9-1-12.39a10.23,10.23,0,0,0-3-5.1,4.68,4.68,0,0,0-3.14-1,5.5,5.5,0,0,0-4.77,2.85q-3.3,5-3.3,13.68v2Z"/><path class="cls-1" d="M1793.23,459.92q-9.57,8.46-17.2,8.46a10.21,10.21,0,0,1-7.46-2.94,10,10,0,0,1-3-7.38q0-6,5.16-10.78t22.47-12.76v-5.26q0-5.94-.64-7.49a6,6,0,0,0-2.43-2.69,7.32,7.32,0,0,0-4-1.15,10.3,10.3,0,0,0-6,1.63,2.85,2.85,0,0,0-1.46,2.35,4.84,4.84,0,0,0,1.57,2.91,7.19,7.19,0,0,1,2.13,4.65,6.19,6.19,0,0,1-2,4.68,7.43,7.43,0,0,1-5.34,1.93A8.55,8.55,0,0,1,1769,434a6.5,6.5,0,0,1-2.38-5,11.66,11.66,0,0,1,3.19-7.71,20.28,20.28,0,0,1,8.92-5.64,36.51,36.51,0,0,1,11.88-2q7.46,0,11.8,3.17a15,15,0,0,1,5.64,6.87q.78,2.35.78,10.82v20.35a22,22,0,0,0,.27,4.52,2.76,2.76,0,0,0,.85,1.37,2,2,0,0,0,1.29.45c1,0,2-.68,3-2.07l1.69,1.35a20.4,20.4,0,0,1-5.81,6,12.51,12.51,0,0,1-6.82,1.88,10.58,10.58,0,0,1-7-2.1,9.53,9.53,0,0,1-3.09-6.35m0-4.1V438.27a33.08,33.08,0,0,0-10.09,8.52,10.39,10.39,0,0,0-2.17,6.11,6.36,6.36,0,0,0,1.84,4.54,5.07,5.07,0,0,0,3.92,1.52Q1789.53,459,1793.23,455.82Z"/><path class="cls-1" d="M1842.23,391.63v65.14q0,5.54,1.28,7.09c.87,1,2.55,1.61,5.05,1.76v2h-28.3v-2a6.87,6.87,0,0,0,5.16-2c.73-.85,1.12-3.14,1.12-6.83V402.51q0-5.49-1.29-7c-.87-1-2.52-1.62-5-1.77v-2.07h22"/><path class="cls-1" d="M1874.4,396.07v19.17h12.45v5.55H1874.4v32.34a24.63,24.63,0,0,0,.42,5.86,4.29,4.29,0,0,0,1.48,2.12,3.34,3.34,0,0,0,2,.81q3.64,0,6.9-5.54l1.68,1.23q-4.54,10.76-14.74,10.76a13,13,0,0,1-8.44-2.78,12.25,12.25,0,0,1-4.41-6.19q-.55-1.91-.55-10.31V420.78h-6.84v-2a72.56,72.56,0,0,0,12-10.48,64.58,64.58,0,0,0,8.66-12.28h1.84"/><path class="cls-1" d="M1913.26,391.63V422a32,32,0,0,1,7.9-6.42,15.91,15.91,0,0,1,7.45-1.88,13.08,13.08,0,0,1,8.44,2.81,13.26,13.26,0,0,1,4.65,6.59q1.16,3.78,1.16,12.75v20.46c0,4,.37,6.49,1.12,7.49s2.25,1.62,4.54,1.88v2h-26.57v-2a6.06,6.06,0,0,0,4.2-2.24q1-1.46,1-7.12V432.89q0-6.5-.51-8.16a4.86,4.86,0,0,0-1.71-2.57,4.32,4.32,0,0,0-2.71-.93,7.41,7.41,0,0,0-4.38,1.54,19.92,19.92,0,0,0-4.59,5.41v28.08q0,5.61.83,7c.72,1.28,2.17,2.06,4.38,2.36v2H1891.9v-2c2.2-.22,3.77-.93,4.7-2.12q1-1.23,1-7.24V403c0-4-.36-6.43-1.1-7.4s-2.25-1.61-4.56-1.91v-2.07h21.36"/><path class="cls-1" d="M2021.95,446h-26.86l-3.19,7.39a16.44,16.44,0,0,0-1.57,6.12,5.07,5.07,0,0,0,2.58,4.71c1,.6,3.49,1,7.46,1.35v2.07h-25.29v-2.07a11.39,11.39,0,0,0,6.73-3.4c1.75-1.85,3.93-5.67,6.5-11.47l27.19-60.65h1.06L2044,452.4q3.93,8.85,6.45,11.16a8.89,8.89,0,0,0,5.38,2v2.07H2019v-2.07h1.52c2.94,0,5-.42,6.21-1.24a3,3,0,0,0,1.24-2.57,6.76,6.76,0,0,0-.34-2.08c-.08-.33-.63-1.73-1.68-4.2l-4-9.47m-1.92-4.15-11.31-26.18-11.66,26.18Z"/><path class="cls-1" d="M2092.3,415.85H2110V422h-10a18.72,18.72,0,0,1,3.81,5,15.38,15.38,0,0,1,1.35,6.33,15.72,15.72,0,0,1-3.11,9.73,20.76,20.76,0,0,1-8.46,6.45,24.38,24.38,0,0,1-9.51,2.33l-6.72-.29a5.86,5.86,0,0,0-4.23,1.66,5.31,5.31,0,0,0-1.71,4,4.1,4.1,0,0,0,1.54,3.31c1,.87,2.7,1.29,5,1.29l9.69-.12q11.77,0,16.2,2.58a11.83,11.83,0,0,1,6.34,11,14.13,14.13,0,0,1-2.91,8.66,17.13,17.13,0,0,1-7.68,5.75,46.67,46.67,0,0,1-16.66,2.74,56.14,56.14,0,0,1-12.89-1.37q-5.82-1.38-8.36-3.81a7.19,7.19,0,0,1-2.52-5.14,6.6,6.6,0,0,1,1.94-4.62q1.93-2,7.2-3.45-7.27-3.59-7.28-10a11.75,11.75,0,0,1,3-7.52c2-2.42,5.11-4.54,9.42-6.33q-7.51-2.74-10.88-7.23a16.78,16.78,0,0,1-3.37-10.37q0-7.69,6.28-13.31t16.15-5.64a29.16,29.16,0,0,1,10.76,2.19m-13,59.53q-5.71,0-7.56,1-3.2,1.73-3.2,4.71t3.31,5.18q3.3,2.34,12.45,2.33,7.79,0,12.25-2.07t4.45-5.83a3.4,3.4,0,0,0-.84-2.35,8.07,8.07,0,0,0-4.57-2.31C2093.55,475.59,2088.11,475.38,2079.29,475.38Zm3.31-58.24a6.5,6.5,0,0,0-5.48,3.28c-1.51,2.19-2.25,6.72-2.25,13.59,0,5.57.74,9.39,2.21,11.47s3.23,3.11,5.25,3.11a6.68,6.68,0,0,0,5.6-3.09q2.25-3.07,2.24-12,0-10-2.53-13.68A5.71,5.71,0,0,0,2082.6,417.14Z"/><path class="cls-1" d="M2158.17,439.57h-28.76Q2129.92,450,2135,456a11.69,11.69,0,0,0,9.3,4.66,10.55,10.55,0,0,0,6.1-1.88,23.45,23.45,0,0,0,5.9-6.76l1.9,1.24q-4.26,8.7-9.42,12.3a20.27,20.27,0,0,1-11.94,3.62q-11.66,0-17.66-9-4.82-7.22-4.81-17.94,0-13.11,7.09-20.88t16.62-7.76q7.95,0,13.82,6.53t6.3,19.37m-13.79-3.76q0-9-1-12.39a10.16,10.16,0,0,0-3.05-5.1,4.68,4.68,0,0,0-3.14-1,5.52,5.52,0,0,0-4.77,2.85q-3.3,5-3.3,13.68v2Z"/><path class="cls-1" d="M2183.85,415.23V422a30.85,30.85,0,0,1,7.73-6.35,16.44,16.44,0,0,1,8-2,12.72,12.72,0,0,1,8.46,2.83,13.56,13.56,0,0,1,4.48,7q.9,3.2.9,12.28v20.41c0,4,.38,6.54,1.1,7.54s2.25,1.62,4.57,1.88v2h-26.51v-2a5.51,5.51,0,0,0,4.25-2.47q.9-1.39.9-7V432.89c0-4.29-.16-7-.51-8.13a4.91,4.91,0,0,0-1.7-2.6,4.27,4.27,0,0,0-2.66-.93q-4.83,0-9,6.9v28.08q0,5.88,1.09,7.45c.72,1,2.08,1.71,4.06,2v2h-26.51v-2c2.2-.22,3.77-.93,4.7-2.12q1-1.23,1-7.29v-29.6c0-4-.36-6.43-1.1-7.4s-2.25-1.6-4.56-1.9v-2.08h21.36"/><path class="cls-1" d="M2266.76,454.14l1.74,1.35a26,26,0,0,1-9.23,10.34,22,22,0,0,1-11.74,3.4,20.29,20.29,0,0,1-16.75-7.9,29.55,29.55,0,0,1-6.28-19,31.94,31.94,0,0,1,5.71-18.84,22,22,0,0,1,19-9.81q8.12,0,12.91,4.1t4.8,9.13A6.87,6.87,0,0,1,2265,432a7,7,0,0,1-5.08,1.91,7.34,7.34,0,0,1-5.46-2.19q-2.16-2.19-2.67-7.79c-.23-2.36-.77-4-1.62-4.93a4,4,0,0,0-3-1.4q-2.69,0-4.59,2.86-2.91,4.31-2.91,13.22a42.47,42.47,0,0,0,2.36,14.16q2.34,6.76,6.44,10.06a11.46,11.46,0,0,0,7.29,2.41,11.19,11.19,0,0,0,5.21-1.28,24.14,24.14,0,0,0,5.83-4.88"/><path class="cls-1" d="M2299,469.78l-16.92-38.86q-3.81-8.79-5.64-10.82a9.53,9.53,0,0,0-4.4-2.8v-2.08h27.86v2.08a6.51,6.51,0,0,0-3.87,1.06,2.94,2.94,0,0,0-1.12,2.29c0,1.43.94,4.23,2.81,8.41l9,20.52,6.11-15.87q3.3-8.47,3.31-11.78a4.21,4.21,0,0,0-1.38-3.3c-.92-.82-2.53-1.27-4.85-1.34v-2.08h17.55v2.08a6.55,6.55,0,0,0-4.21,2q-1.62,1.71-5.44,11.63l-14.95,38.86q-5.67,14.56-8.42,17.94a12,12,0,0,1-9.69,4.7,10.66,10.66,0,0,1-7.54-2.66,8.42,8.42,0,0,1-2.9-6.42,7.56,7.56,0,0,1,2-5.38,6.45,6.45,0,0,1,4.9-2.14,6,6,0,0,1,4.52,1.79c1.13,1.2,1.72,3.05,1.76,5.55a5.63,5.63,0,0,0,.5,2.75,1.51,1.51,0,0,0,1.29.61,4.2,4.2,0,0,0,2.87-1.62q2.24-2.36,5.26-10.76l1.62-4.37"/><path class="cls-1" d="M778.42,247.12l-12.53-28.89L753,247.12h25.4m2.09,4.59H750.85l-3.52,8.17a18.27,18.27,0,0,0-1.74,6.77,5.59,5.59,0,0,0,2.85,5.19c1.11.66,3.85,1.15,8.23,1.5v2.31H728.75v-2.31a12.52,12.52,0,0,0,7.43-3.74c1.92-2,4.33-6.28,7.17-12.68l30-67h1.21l30.27,68.84q4.32,9.81,7.12,12.33a9.84,9.84,0,0,0,5.92,2.24v2.31H777.3v-2.31H779c3.25,0,5.55-.47,6.87-1.37a3.33,3.33,0,0,0,1.36-2.86,7.77,7.77,0,0,0-.38-2.28c-.06-.36-.68-1.89-1.85-4.64Z"/><path class="cls-1" d="M869.38,217.74V263c0,4.42.4,7.19,1.24,8.3s2.49,1.73,5,2.06v2.24H852v-7.76a31.1,31.1,0,0,1-8.3,7.25,19.49,19.49,0,0,1-9.29,2.22,13.76,13.76,0,0,1-8.73-3,14.76,14.76,0,0,1-5.08-7.05c-.85-2.67-1.29-7.37-1.29-14v-23c0-4.35-.42-7.08-1.24-8.17s-2.46-1.77-5-2.08v-2.31h23.6v39.55c0,4.12.18,6.81.55,8a5.58,5.58,0,0,0,1.85,2.71,5,5,0,0,0,3,.94,7.33,7.33,0,0,0,4-1.16c1.65-1.1,3.63-3.25,5.95-6.52v-31c0-4.35-.41-7.08-1.24-8.17s-2.44-1.77-5-2.08v-2.31h23.6"/><path class="cls-1" d="M916.13,216.12l.94,19.76H915q-3.81-8.78-7.87-12a12.87,12.87,0,0,0-8.06-3.23,6,6,0,0,0-4.32,1.73,5,5,0,0,0-.57,7.11c1.32,1.71,5,4.61,11.09,8.75s10,7.56,11.94,10.44a16.76,16.76,0,0,1,2.92,9.61,20.42,20.42,0,0,1-2.42,9.49,16.67,16.67,0,0,1-6.81,7.08,19.58,19.58,0,0,1-9.73,2.5c-2.76,0-6.46-.88-11.08-2.61a9.52,9.52,0,0,0-2.53-.69c-1.37,0-2.5,1.06-3.41,3.12h-2l-1-20.81h2.12c1.84,5.44,4.38,9.54,7.6,12.25s6.33,4.1,9.23,4.1a6.67,6.67,0,0,0,4.83-1.79,6,6,0,0,0,1.91-4.46,7.64,7.64,0,0,0-1.84-5.15c-1.25-1.46-4-3.63-8.31-6.56q-9.48-6.56-12.26-10.05a17.4,17.4,0,0,1-4.08-11.18,18.06,18.06,0,0,1,4.59-12.09Q889.5,216,898.24,216a19.5,19.5,0,0,1,9.11,2.31,6.07,6.07,0,0,0,2.73.95,3.5,3.5,0,0,0,1.79-.45,12.84,12.84,0,0,0,2.16-2.68h2.1"/><path class="cls-1" d="M946.79,196.56v21.15h13.75v6.16H946.79v35.72a31.5,31.5,0,0,0,.41,6.51,5.25,5.25,0,0,0,1.68,2.35,3.73,3.73,0,0,0,2.17.86c2.68,0,5.23-2.06,7.62-6.12l1.87,1.36c-3.36,7.9-8.78,11.89-16.29,11.89a14.7,14.7,0,0,1-9.35-3,13.92,13.92,0,0,1-4.85-6.88q-.61-2.12-.61-11.4V223.87h-7.56v-2.19a78.61,78.61,0,0,0,13.27-11.59,69.6,69.6,0,0,0,9.58-13.53h2.05"/><path class="cls-1" d="M988.79,217.74v13.11c3.85-6,7.21-9.92,10.1-11.89a15,15,0,0,1,8.35-3,7.19,7.19,0,0,1,5.52,2.19,8.06,8.06,0,0,1,2.12,6,9.36,9.36,0,0,1-2.06,6.45,6.17,6.17,0,0,1-4.82,2.28,8.35,8.35,0,0,1-5.69-2.12,36.85,36.85,0,0,0-2.86-2.34,2.72,2.72,0,0,0-1.42-.37,5.13,5.13,0,0,0-3.4,1.37,12.7,12.7,0,0,0-3.83,6,41.81,41.81,0,0,0-2,13.24V262l.06,3.48a14,14,0,0,0,.44,4.5,4.88,4.88,0,0,0,2.15,2.47,13.37,13.37,0,0,0,5,1v2.24H965.16v-2.24q3.76-.33,5.07-2.06c.9-1.2,1.38-4.31,1.38-9.37V230a24.44,24.44,0,0,0-.51-6.34,5,5,0,0,0-1.81-2.52,8.84,8.84,0,0,0-4.13-1.09v-2.31h23.63"/><path class="cls-1" d="M1046.67,262.54V243.19a36.85,36.85,0,0,0-11.15,9.37,11.68,11.68,0,0,0-2.42,6.77,7,7,0,0,0,2.06,5,5.48,5.48,0,0,0,4.33,1.71c2.06,0,4.46-1.15,7.18-3.5m0,4.55q-10.58,9.35-19,9.35a11.29,11.29,0,0,1-8.22-3.22,11,11,0,0,1-3.29-8.18c0-4.42,1.89-8.37,5.68-11.89s12.09-8.24,24.84-14.11v-5.81c0-4.37-.26-7.12-.75-8.23a6.16,6.16,0,0,0-2.66-3,7.83,7.83,0,0,0-4.45-1.31,11.42,11.42,0,0,0-6.63,1.79,3.18,3.18,0,0,0-1.61,2.6,5.42,5.42,0,0,0,1.73,3.21,8,8,0,0,1,2.35,5.15,6.83,6.83,0,0,1-2.27,5.19,8.25,8.25,0,0,1-5.89,2.13,9.57,9.57,0,0,1-6.58-2.37,7.24,7.24,0,0,1-2.61-5.51,12.74,12.74,0,0,1,3.54-8.48,22.41,22.41,0,0,1,9.86-6.28,40.29,40.29,0,0,1,13.13-2.16c5.47,0,9.81,1.18,13,3.55s5.31,4.85,6.26,7.56c.58,1.73.87,5.7.87,11.94v22.47a25,25,0,0,0,.29,5,3.18,3.18,0,0,0,.94,1.47,2.15,2.15,0,0,0,1.42.51c1.07,0,2.17-.76,3.3-2.31l1.85,1.5a22.94,22.94,0,0,1-6.44,6.66,13.78,13.78,0,0,1-7.49,2.07c-3.31,0-5.88-.76-7.74-2.31a10.66,10.66,0,0,1-3.4-7"/><path class="cls-1" d="M1097,191.67v71.94c0,4.1.49,6.72,1.42,7.85s2.8,1.77,5.58,1.95v2.24h-31.27v-2.24c2.56-.09,4.45-.84,5.69-2.24.82-1,1.25-3.44,1.25-7.56V203.69c0-4.06-.48-6.64-1.42-7.75s-2.8-1.79-5.52-2v-2.26H1097"/><path class="cls-1" d="M1132.15,217.74v45.87c0,4.1.49,6.72,1.43,7.85s2.8,1.77,5.55,1.95v2.24h-31.26v-2.24c2.57-.09,4.46-.84,5.69-2.24.83-1,1.24-3.44,1.25-7.56V229.8c0-4.08-.46-6.68-1.43-7.79s-2.78-1.84-5.51-2v-2.31h24.28m-8.66-28.07a9.55,9.55,0,0,1,6.74,16.35,9.54,9.54,0,1,1-6.74-16.35"/><path class="cls-1" d="M1172.93,262.54V243.19q-7.5,4.39-11.15,9.37a11.65,11.65,0,0,0-2.4,6.77,7,7,0,0,0,2,5,5.52,5.52,0,0,0,4.33,1.71c2.06,0,4.46-1.15,7.19-3.5m0,4.55q-10.58,9.35-19,9.35a11.34,11.34,0,0,1-8.24-3.22,11.06,11.06,0,0,1-3.28-8.18c0-4.42,1.9-8.37,5.7-11.89s12.08-8.24,24.83-14.11v-5.81c0-4.37-.25-7.12-.76-8.23a6,6,0,0,0-2.65-3,7.86,7.86,0,0,0-4.45-1.31,11.32,11.32,0,0,0-6.62,1.79,3.13,3.13,0,0,0-1.63,2.6,5.41,5.41,0,0,0,1.72,3.21,7.93,7.93,0,0,1,2.37,5.15,6.85,6.85,0,0,1-2.28,5.19,8.27,8.27,0,0,1-5.89,2.13,9.56,9.56,0,0,1-6.57-2.37,7.23,7.23,0,0,1-2.6-5.51,12.7,12.7,0,0,1,3.54-8.48,22.18,22.18,0,0,1,9.84-6.28,40.34,40.34,0,0,1,13.11-2.16q8.26,0,13,3.55c3.24,2.31,5.31,4.85,6.26,7.56.58,1.73.86,5.7.86,11.94v22.47a24.37,24.37,0,0,0,.31,5,3.23,3.23,0,0,0,.92,1.47,2.18,2.18,0,0,0,1.44.51c1.06,0,2.17-.76,3.28-2.31l1.86,1.5a22.67,22.67,0,0,1-6.43,6.66,13.77,13.77,0,0,1-7.49,2.07c-3.31,0-5.89-.76-7.74-2.31a10.65,10.65,0,0,1-3.41-7"/><path class="cls-1" d="M1223,217.74v7.5a33.45,33.45,0,0,1,8.53-7,17.89,17.89,0,0,1,8.81-2.25,14,14,0,0,1,9.34,3.19,14.8,14.8,0,0,1,4.95,7.72c.65,2.33,1,6.88,1,13.56V263c0,4.46.4,7.26,1.19,8.37s2.52,1.73,5.07,2.06v2.24h-29.3v-2.24a6.27,6.27,0,0,0,4.71-2.72c.67-1,1-3.6,1-7.7V237.23c0-4.74-.19-7.73-.55-9a5.13,5.13,0,0,0-1.91-2.84,4.41,4.41,0,0,0-2.91-1.07c-3.56,0-6.85,2.54-9.9,7.59v31c0,4.33.37,7.11,1.16,8.24s2.34,1.86,4.52,2.19v2.24h-29.28v-2.24c2.43-.28,4.16-1.06,5.2-2.35.7-.93,1-3.61,1.05-8.07V230.29c0-4.35-.43-7.08-1.23-8.17s-2.46-1.77-5-2.08v-2.31H1223"/><path class="cls-1" d="M1375.87,189.77v29.57h-2.29q-4.15-12.14-12.44-18.45a29.19,29.19,0,0,0-18.15-6.32q-9.42,0-15.67,5.34t-8.85,14.73a73.06,73.06,0,0,0-2.6,19.43,71.5,71.5,0,0,0,2.84,21.17c1.92,6.07,4.94,10.53,9.18,13.37a26.52,26.52,0,0,0,15.1,4.28,31.13,31.13,0,0,0,6.19-.62,51.11,51.11,0,0,0,6.55-1.9V252.91c0-3.32-.23-5.43-.66-6.41a6.46,6.46,0,0,0-2.86-2.65,10.45,10.45,0,0,0-5.15-1.16h-2.15v-2.31h40.8v2.31a18.15,18.15,0,0,0-6.51,1.29,6.29,6.29,0,0,0-2.78,3.14c-.38.8-.55,2.71-.55,5.79v17.46a80.49,80.49,0,0,1-16.76,5.37,87.4,87.4,0,0,1-18,1.86q-12,0-19.88-3.24a50.9,50.9,0,0,1-13.94-8.52,39.63,39.63,0,0,1-13.74-31.09,43.11,43.11,0,0,1,13.33-32q13.31-13.07,33.5-13.09a59.76,59.76,0,0,1,11.25,1,58.76,58.76,0,0,1,8.82,2.84c4.06,1.53,6.49,2.31,7.22,2.31a4.78,4.78,0,0,0,3.2-1.24,11.43,11.43,0,0,0,2.75-4.8h2.29"/><path class="cls-1" d="M1416.29,220.39a7.15,7.15,0,0,0-5.43,2.4c-1.47,1.59-2.47,4.72-3,9.42s-.67,11.16-.67,19.52a83.06,83.06,0,0,0,.85,12.38,11.72,11.72,0,0,0,2.92,6.68,6.86,6.86,0,0,0,5.06,2.26,7,7,0,0,0,4.66-1.53,10.48,10.48,0,0,0,3.22-5.88c.84-3.9,1.22-11.85,1.24-23.78q0-10.51-1.18-14.42a11.11,11.11,0,0,0-3.48-5.77,6.52,6.52,0,0,0-4.22-1.3M1416,216a26.78,26.78,0,0,1,14.07,3.92A24.65,24.65,0,0,1,1440,231a36.28,36.28,0,0,1,3.4,15.74q0,12.29-6.26,20.6-7.54,10-20.87,10c-8.68,0-15.42-3-20.1-9.18a33.69,33.69,0,0,1-7.07-21.23,34.26,34.26,0,0,1,7.18-21.67c4.82-6.17,11.42-9.29,19.81-9.29"/><path class="cls-1" d="M1470.67,277.36l-19.5-44.87c-2.37-5.42-4.18-8.86-5.5-10.3a7.41,7.41,0,0,0-4.24-2.14v-2.31h30.77V220c-1.91,0-3.22.33-3.95,1a4.16,4.16,0,0,0-1.47,3.22c0,1.53.9,4.4,2.71,8.61l9.53,21.74,7.62-18.77q3.3-8.08,3.31-11.38a3.87,3.87,0,0,0-1.45-3.12c-.9-.84-2.55-1.28-4.9-1.33v-2.31h18.94V220a7.55,7.55,0,0,0-4.43,2c-1.16,1.11-2.89,4.37-5.22,9.82l-19.3,45.46h-2.92"/><path class="cls-1" d="M1532.87,240.45c0-6.64-.36-11.23-1.11-13.7a10.93,10.93,0,0,0-3.33-5.62A5.31,5.31,0,0,0,1525,220a6,6,0,0,0-5.28,3.14q-3.66,5.5-3.65,15.09v2.18h16.83m15.24,4.15h-31.75q.54,11.54,6.11,18.21c2.86,3.39,6.27,5.12,10.29,5.12a12,12,0,0,0,6.74-2c2-1.44,4.19-3.93,6.52-7.5l2.09,1.37c-3.13,6.38-6.59,10.94-10.4,13.62a22.67,22.67,0,0,1-13.21,3.95q-12.84,0-19.47-9.91c-3.57-5.32-5.35-11.93-5.35-19.79q0-14.51,7.8-23t18.4-8.63q8.79,0,15.22,7.27c4.34,4.75,6.69,11.89,7,21.35"/><path class="cls-1" d="M1575.57,217.74v13.11c3.86-6,7.19-9.92,10.1-11.89a14.94,14.94,0,0,1,8.35-3,7.16,7.16,0,0,1,5.51,2.19,8.12,8.12,0,0,1,2.11,6,9.41,9.41,0,0,1-2.05,6.45,6.21,6.21,0,0,1-4.83,2.28,8.41,8.41,0,0,1-5.7-2.12c-1.6-1.4-2.56-2.16-2.84-2.34a2.82,2.82,0,0,0-1.42-.37,5.1,5.1,0,0,0-3.4,1.37,13,13,0,0,0-3.85,6,42,42,0,0,0-2,13.24V262l.06,3.48a14.63,14.63,0,0,0,.43,4.5,4.9,4.9,0,0,0,2.17,2.47,13.23,13.23,0,0,0,4.93,1v2.24h-31.24v-2.24c2.51-.22,4.22-.9,5.07-2.06s1.35-4.31,1.35-9.37V230c0-3.31-.13-5.43-.49-6.34a4.84,4.84,0,0,0-1.78-2.52,8.85,8.85,0,0,0-4.15-1.09v-2.31h23.65"/><path class="cls-1" d="M1628.95,217.74v7.5a33.3,33.3,0,0,1,8.54-7,18,18,0,0,1,8.8-2.25,13.9,13.9,0,0,1,9.34,3.19,14.76,14.76,0,0,1,5,7.72c.66,2.33,1,6.88,1,13.56V263c0,4.46.35,7.26,1.15,8.37s2.51,1.73,5.08,2.06v2.24h-29.3v-2.24a6.31,6.31,0,0,0,4.72-2.72c.67-1,1-3.6,1-7.7V237.23c0-4.74-.18-7.73-.55-9a5,5,0,0,0-1.92-2.84,4.36,4.36,0,0,0-2.9-1.07c-3.57,0-6.86,2.54-9.91,7.59v31c0,4.33.39,7.11,1.17,8.24s2.35,1.86,4.53,2.19v2.24h-29.29v-2.24c2.42-.28,4.15-1.06,5.2-2.35.68-.93,1-3.61,1-8.07V230.29c0-4.35-.43-7.08-1.24-8.17s-2.46-1.77-5-2.08v-2.31h23.59"/><path class="cls-1" d="M1696,217.74v7.63a32.71,32.71,0,0,1,8.8-7.26,18.94,18.94,0,0,1,8.9-2.12,16.28,16.28,0,0,1,9.38,2.61,16.55,16.55,0,0,1,5.81,7.92,37,37,0,0,1,9.48-8.05,19.74,19.74,0,0,1,9.54-2.48c4,0,7.18,1,9.52,2.81a13.7,13.7,0,0,1,4.94,7c1,2.8,1.42,7.3,1.42,13.5V263c0,4.46.39,7.23,1.18,8.3s2.52,1.77,5.08,2.12v2.24h-29.91v-2.24a6.72,6.72,0,0,0,5.21-2.72c.76-1.13,1.11-3.69,1.11-7.7V238.11c0-5.17-.2-8.47-.62-9.85a5.61,5.61,0,0,0-2-3.1,4.7,4.7,0,0,0-3.07-1.07,8.92,8.92,0,0,0-5.39,2,23.58,23.58,0,0,0-5.5,5.82V263c0,4.19.34,6.79,1,7.88.94,1.51,2.76,2.37,5.46,2.55v2.24h-30v-2.24a6.78,6.78,0,0,0,3.79-1.2,5.14,5.14,0,0,0,1.85-2.61,26.64,26.64,0,0,0,.49-6.62V238.11c0-5.26-.21-8.52-.62-9.85a5.62,5.62,0,0,0-2.11-3.1,4.88,4.88,0,0,0-3.09-1.13,8.19,8.19,0,0,0-4.51,1.33,25,25,0,0,0-6.2,6.55V263c0,4.1.39,6.79,1.15,8.12s2.55,2,5.11,2.31v2.24h-29.85v-2.24c2.44-.28,4.16-1.06,5.19-2.35.7-.93,1.07-3.61,1.07-8.07V230.29c0-4.35-.43-7.08-1.24-8.17s-2.46-1.77-5-2.08v-2.31H1696"/><path class="cls-1" d="M1806.36,240.45c0-6.64-.37-11.23-1.11-13.7a10.81,10.81,0,0,0-3.34-5.62,5.26,5.26,0,0,0-3.46-1.09,6.05,6.05,0,0,0-5.26,3.14q-3.66,5.5-3.66,15.09v2.18h16.83m15.24,4.15h-31.74q.54,11.54,6.1,18.21a13.06,13.06,0,0,0,10.29,5.12,12,12,0,0,0,6.75-2,27.76,27.76,0,0,0,6.51-7.5l2.09,1.37c-3.14,6.38-6.6,10.94-10.4,13.62a22.65,22.65,0,0,1-13.19,3.95q-12.88,0-19.49-9.91c-3.55-5.32-5.34-11.93-5.34-19.79q0-14.51,7.81-23t18.39-8.63q8.77,0,15.22,7.27c4.33,4.75,6.68,11.89,7,21.35"/><path class="cls-1" d="M1847.43,217.74v7.5a33.17,33.17,0,0,1,8.55-7,18,18,0,0,1,8.79-2.25,13.84,13.84,0,0,1,9.34,3.19,14.85,14.85,0,0,1,5,7.72c.66,2.33,1,6.88,1,13.56V263c0,4.46.38,7.26,1.2,8.37s2.5,1.73,5,2.06v2.24H1857v-2.24a6.32,6.32,0,0,0,4.69-2.72c.64-1,1-3.6,1-7.7V237.23c0-4.74-.18-7.73-.58-9a5.11,5.11,0,0,0-1.9-2.84,4.39,4.39,0,0,0-2.91-1.07c-3.57,0-6.85,2.54-9.91,7.59v31c0,4.33.39,7.11,1.15,8.24s2.36,1.86,4.55,2.19v2.24h-29.29v-2.24c2.44-.28,4.15-1.06,5.19-2.35.71-.93,1.05-3.61,1.05-8.07V230.29c0-4.35-.4-7.08-1.2-8.17s-2.48-1.77-5-2.08v-2.31h23.59"/><path class="cls-1" d="M1910.94,196.56v21.15h13.75v6.16h-13.75v35.72a33.06,33.06,0,0,0,.42,6.51,5.19,5.19,0,0,0,1.69,2.35,3.65,3.65,0,0,0,2.18.86c2.65,0,5.18-2.06,7.6-6.12l1.86,1.36c-3.35,7.9-8.78,11.89-16.3,11.89a14.55,14.55,0,0,1-9.32-3,13.83,13.83,0,0,1-4.88-6.88c-.38-1.41-.61-5.21-.61-11.4V223.87h-7.51v-2.19a78.51,78.51,0,0,0,13.23-11.59,69.31,69.31,0,0,0,9.59-13.53h2"/><path class="cls-1" d="M267.47,416.42a3.91,3.91,0,0,1-1.62,1.62"/><path class="cls-1" d="M282,303.07a3.05,3.05,0,1,0-3-3.06,3,3,0,0,0,3,3.06"/><path class="cls-1" d="M419.35,236.52H386.13V177.94h33.22Zm0,27.83c-.58,6.3-2.71,11.56-7.09,14.55l-26.13,15.62v-55h33.22Zm-36.21-27.83H352.46V177.94h30.69Zm0,59.77-12.07,7.21h-.21a5,5,0,0,1-3.19,1.1,4.92,4.92,0,0,1-3.2-1.16l-12-7.14V239.51h30.69Zm-43.09-81.21h9.44v21.44h-9.44Zm9.44,79.43-26.14-15.62c-4.35-3-6.51-8.24-7.09-14.55V239.51h33.24Zm-21.74-94h-11.5V177.94h11.5Zm2.84-14.11L332,185l-.84-1.57,1.77.22,1.07-1.89,1,1.86,1.81-.19L336,185l1.32,1.4-1.72.32v1.92l-1.61-1.22-1.62,1.22v-1.92Zm8.14,23.6c-.09-.57-.85-.73-1.16-.73-1,0-1.44,1.7-2.3,1.75-.62,0-1.06.08-1.06-.68,0-.59,1.29-1,1.8-1.5-7.08,0-7.23,3.21-8.34,3.21-1.85,0,1.56-3.39,2.55-4.39-1.44-.23-2.26-2-3.83-2.88.73-1.08,1.13-.6,2.07.13,0-.72.57-1.63,2.2-1.63,3.18,0,2.29,3.1,2.81,3.1s-.05-3.1,2.08-3.1c3.13,0,7.07,8.08,3.51,8.08-1.53,0-.3-1.14-.33-1.36m-7.63,17.24,1.77.18,1.07-1.87,1,1.87,1.81-.18-.82,1.53,1.32,1.4-1.72.33v1.93l-1.61-1.24-1.62,1.24v-1.93l-1.73-.33,1.36-1.4Zm-12.95-21.8,1.77.17,1.06-1.86,1.05,1.85,1.77-.16L323,207l1.34,1.42-1.71.32v1.89l-1.63-1.2-1.6,1.2v-1.89l-1.73-.32L319,207Zm-1.9,9.61h11.5v21.44h-11.5Zm26.38-6.66L344,207l-.84-1.53,1.76.17,1.08-1.86,1,1.85,1.78-.16L348,207l1.33,1.42-1.71.32v1.89l-1.62-1.2-1.63,1.2v-1.89Zm6.85-7.89h-9.44V177.94h9.44ZM422.41,175v-.06H313.19V175h0l.09,88.22c0,8.51,3.62,15.94,8.58,18.25l42,25.09a5,5,0,0,0,3.81,1.72A5.1,5.1,0,0,0,371.1,307l42.68-25.49c5-2.31,8.58-9.73,8.58-18.25l.09-88.22Z"/><path class="cls-1" d="M347.74,259.73c-.19-.36-4.19,1.33-3,1.2.12-1.17,2.33-3.6,3.33-4.48-.19-1.41-2-.12-3.85.86,6.24-8.9,2.23-5.25-1.24-4.65,5.54-6,4.09-5.85,0-4,3.22-2.56,3.9-5.59,3.41-6.5-3,4-5.79,3.43-5.79,7.15,0,2.44-.9,6.47-2.15,7.86-1.62,1.74-.38-6.58-4.64-6.58-1.39,0-4.57-.15-5.56,1.56.88,0,2.18,2.19,2.18,3.07s.8,3.31-.65,3.31-3.15-3.06-3.15-4.52-.1-1.13-.1-3.25c0-3.53-5.75-8.49-8.09-8.49,0,2.45,3.22,3.06,3.22,6.18-1.36,0-3.3-2.55-3.3-1s2,1.86,2,3.22-2.33-.48-2.33,1c0,1.3,1.26,1.1,1.57,2.36-.95-.27-1.79-.15-2,.33s.27,1,1,1.38c-.35.29-.61,1-.61,3.13,0,6.94,4.36,10.18,7.58,10.18,2.26,0,1.91-1.59,2.18-2.38.11,1.2,1.24-.59,1.24,1.51s-2.24,1.2-2.24,3.05c0,2.5,3.5-.09,3.5,2.68,0,3.33-.41,3.25-.41,4.54,0,.9,3.68-1.22,3.44-1.6.89.32.84,2.92,2.47,2.84,1.07,0,1.28-2.65,2.11-2.87-.49.12,3.32,2.5,3.32,1.3,0-3.26-1.34-1.87-1.34-4.12,0-2,4.51-1.65,3.8-2.7-.6-.89-1-.33-1.48-1.89.1.31-3.53-5.15.76-2.34,4.51,3,5-6.84,4.79-7.35"/><path class="cls-1" d="M464.27,282.8a3.19,3.19,0,1,0-3.6-3.17,3.4,3.4,0,0,0,3.6,3.17"/><path class="cls-1" d="M449.74,291.43a3.18,3.18,0,1,0-3.59-3.15,3.4,3.4,0,0,0,3.59,3.15"/><path class="cls-1" d="M277.08,311.35a3.19,3.19,0,1,0-3.6-3.18,3.41,3.41,0,0,0,3.6,3.18"/><path class="cls-1" d="M288.26,312.31a3.19,3.19,0,1,0-3.58-3.19,3.4,3.4,0,0,0,3.58,3.19"/><path class="cls-1" d="M599.09,161.64a22.51,22.51,0,0,1,2.7,23.81c-2.09-.21-1.73-2.88-2.09-4.41-3.83-7.12-6.88-16.14-3.46-24.19,2.49.39,1.53,3.43,2.85,4.79"/><path class="cls-1" d="M143,170.28a34.34,34.34,0,0,0,0,15.17c-1,.95-.75-1-1.71-.78-7.43-5.37-4-15.91-5.9-23.42a1.47,1.47,0,0,1,1.9-.38c3.42,2.31,5,5.55,5.71,9.41"/><path class="cls-1" d="M615.49,170.86c1.13,2.1-.95,4.22-2.48,5.18a5,5,0,0,1-4.77-2.12,4.42,4.42,0,0,1,2.28-5c1.93-.16,3.83.18,5,1.93"/><path class="cls-1" d="M131.38,179.3c-.39,1.74-1,3.46-2.46,4.23-1.14,0-2.87,0-3.64-1a3.55,3.55,0,0,1-.77-4c.77-1.34,2.31-1.54,3.63-1.72,1.32.57,2.67,1,3.24,2.49"/><path class="cls-1" d="M622.92,182.57a4.18,4.18,0,0,1,0,3c-1.33,1.74-3.25,2.51-5.12,1.74-1.35-.76-1.73-2.1-2.12-3.27a6,6,0,0,1,3.23-3.45c1.71,0,2.86,1,4,1.94"/><path class="cls-1" d="M612.08,182.76c1.51.77.36,2.69.19,3.84-1,.95-2.31,2.49-4,1.92-.94-1-2.09-1-2.47-2.34,0-1.89.76-3.81,2.67-4.38,1.51-.38,2.48.38,3.63,1"/><path class="cls-1" d="M598.15,185.61c0,2.13.2,4.8-2.28,5.21-2.28.76-3.82-1.16-4.37-2.7a4.5,4.5,0,0,1,2.86-4.59,5.19,5.19,0,0,1,3.8,2.08"/><path class="cls-1" d="M152.13,186.6c.59,1.89-1.32,3.06-2.46,4-1.34.39-3-.79-3.83-2.14-1.31-1.32.41-2.45.79-3.63,1.89-1.73,4.76-.38,5.5,1.74"/><path class="cls-1" d="M140.71,187.18a3.93,3.93,0,0,1-2.08,3.65c-1.52.57-3.05-.59-3.82-1.74a3.28,3.28,0,0,1,1.72-4.41c2.1-.78,3.43,1.14,4.18,2.51"/><path class="cls-1" d="M552.05,188a39.74,39.74,0,0,1,3.8,13.8c-.74,3.65.58,8.45-2.07,10.93-2.69-1-2.88-4.23-4.61-5.94-3.42-6.72-.36-14.6.77-21.13,1.53-.54,1.53,1.38,2.11,2.34"/><path class="cls-1" d="M131.76,190.23c.56,2.31-1.15,3.46-2.48,4.8-2.28.57-3.82-1.17-4.77-2.7a4.78,4.78,0,0,1,2.49-4.59,4.82,4.82,0,0,1,4.76,2.49"/><path class="cls-1" d="M582.14,195.78a27.77,27.77,0,0,1,1,18.44l-1.15,1c-2.68-5.18-6.47-10-7.82-15.55a25.29,25.29,0,0,1,2.31-10.92c1.33-1,2.1.19,2.68,1.34.16,2.09,1.13,4.62,3,5.73"/><path class="cls-1" d="M606.16,192.33c-.2,1.93-1,4-2.86,4.6-1.9.39-3.8-.18-4.37-2.26A4.15,4.15,0,0,1,601,190c2.1-1.17,4.19.77,5.15,2.28"/><path class="cls-1" d="M140.91,198.29a4.16,4.16,0,0,1-2.86,3.66c-1.52,1.15-2.65-.78-4-1.36-.59-1.53-.95-2.86,0-4.41.59-1.14,1.91-1.14,3.06-1.51,1.71.93,3.43,1.7,3.81,3.61"/><path class="cls-1" d="M149.29,197.32c.77,1.94-1.33,2.91-2.09,3.84-2.3.78-3.44-.94-4.37-2.29-.39-1.93.76-3.09,2.08-4.2,2.3-.61,3.43.93,4.39,2.65"/><path class="cls-1" d="M611.5,196.76c-.2,2.51-4,5-4.41,7.48A19.2,19.2,0,0,1,595.29,215c-1.15,1-2.67,2.3-4.37,2.51-.38-3.84,3.06-7.29,5.15-10.75a28.11,28.11,0,0,1,15.44-10"/><path class="cls-1" d="M137.1,204.83c2.84,3.25,4.37,6.13,7.8,9a1.56,1.56,0,0,1-1.32,1.92c-9.34-.57-15.62-10.16-20.2-16.87.57-2.12,3-.39,4.37-.59,3.25,2.5,6.88,3.26,9.35,6.54"/><path class="cls-1" d="M614.16,207.5c-.38,8.25-4.4,16.71-11.83,20.72-2.1.78-4.38,2.89-6.47,1.54,4-8.25,10.1-15,16.79-22.26h1.51"/><path class="cls-1" d="M577.59,213.07c.55,2.88-1,4.6-3.24,5.56-2.09.21-3.44-1.53-4.37-3.07a4,4,0,0,1,2.66-4.23,3.12,3.12,0,0,1,2.26-.57c1.15.39,1.73,1.35,2.69,2.31"/><path class="cls-1" d="M126.6,214.8c3.64,2.48,6.85,5.94,10.3,9-2.48,1.7-5.54.17-8.39.17-6.47-2.28-10.86-7.84-17.52-9.77.18-2.11,2.66-1.35,4-1.91,4.2-.38,7.63,1.52,11.61,2.49"/><path class="cls-1" d="M330.66,158c-10.67-4.23-17.72,6.91-28.58,5.57-1.31.77-.95,2.09-1.71,3-.56.6-1.52.22-2.09-.2-.56-4.59-2.1-8.83-2.68-13.23-1.13-1.92-.56-4.59-1.53-6.51-6.09-16.7,14.86-4,19.06-13.79,3.63-8.49-7.05-9.44-10.29-15.36V115c-3-3.08-6.29-4-8.19-8.07,1.34-4.8,1.9-10,.58-14.78-.19-1.16-.95-2.7-2.67-2.11-3.63,5-6.29,9-9.72,13.82-3.62-2.68-7.06-6.16-11.23-8.44-2.87-.37-5.55-3.27-8.76-2.09a2.55,2.55,0,0,0,.55,2.84c.19,7.51,4,13.45,9.33,18.83l.58,2.87c-3.42,7.88-2.46,16.88-3.42,25.34-8.58,21.83-22.48,43-41.36,58.12-10.85,12.29-23.81,24.2-25.52,41.06-.57,2.69.38,6-1.71,7.89a65.13,65.13,0,0,1-17.73-9.43c-8.74-6.14-21.33-5.38-27.05-16.48-2.29-4.42.58-8.84,2.68-12.09,6.48-6.14,5.51-17.07,2.1-24.57-.77-.19-1,.77-1.52,1-.58,11.31-9.53,19.19-6.1,31.67.76,3.63,2.67,5.91,3.62,9.38-1.34-.37-3.24-.37-4.4-.94-4.18-.57-8.38-2.31-12.75-1.74-8.77,4-20.77-.95-27.84,7.1-1.13.2-2.65.4-2.25,2.08,4.17,0,8.17,1.18,12.34,1,6.69,1.13,11-4.43,15.64-6.93h1.15c1.9-1.92,5.14-.76,7.61-1.15,12,1.35,21.33,7.07,31.26,13.07V243c-3.81,1.76-8.2,2.9-12,5-4.38,3.26-9.33,7.47-10.66,12.84-3.05,4.81,1,9,2.84,13.07.2,1.92.39,4.23,2.11,5,6.1-6.53.37-14.6,1.33-22.06,1.52-5.77,6.87-8.45,12.4-10,10.85-4.59,18.66,4.21,27.42,9.2-.18,8.83,1,17.25-.94,25.9a23.8,23.8,0,0,1-9,1.35c-15,1.14-26.85,9.41-40.36,14-6.1,2.09-13.33,1.89-19.44,4.23,4.75,1.32,9.71-.42,14.67-.57,18.67-2.73,33-17.09,53.15-14.6l.37.58A45.32,45.32,0,0,1,191,299.41c-.58-2.09-.76-3.83-2.68-5-1.53-.77-3.25,0-4.37,1.57a2.52,2.52,0,0,0,0,2.85c.94,1.72,2.46,2.14,4.18,2.7-.39,1.7-2.49,2.45-3.63,4-5.33,9-16.21,5.4-22.47,11.72-1,1.34-4.38,2.1-2.86,4.21a28.72,28.72,0,0,0,19.62-5c7.06-7.88,14.48-15.37,21.54-22.84a22.87,22.87,0,0,1-4.2,17.46c-1.7-1-3.05-2.31-5.14-2.87a4.7,4.7,0,0,0-3.45,3.84,11.77,11.77,0,0,0,2.87,3.85c-6.47,4.6-14.67,5-22.12,7.08a368.46,368.46,0,0,1-41.52,3.08c-6.66-.38-14.29,1.91-20.57,0-7.25,1.34-15.05-1-21,3.09-.76.93.19,1.9.19,2.85,8.77,5.78,20.77,1.17,30.68,2.91h75.06c5.52-.21,11.06-.41,15.42-2.91,9.72-5.55,15.06-15.52,20-25.33a40.32,40.32,0,0,0,4-11.49,16.47,16.47,0,0,1,14.26-11.71c1,10-1,19.94-3.24,29.19-1.14,6.1-5.14,12.07-2.65,18.58.55,3.1,3.8,3.1,6.27,3.46,23.05-.36,46.13-1.34,70.5.4,4.39.76,8.2,2.09,13,1.89.39-.55,1.71-.76,1.15-1.89-.59-2.14-2.11-4.8-4.58-5.4-.38-1.13-2.1-.76-2.68-1.52-12.19-6.9-26.85-3.28-41.16-3.08-7.43.79-14.85,2.13-21.14-2.11-2.86-3.44-.74-14.39-.74-14.39,0-4.33,10.46-34.55,11.8-37,.38-2.89,1.52-5.57,1.15-8.84,1.5-3.84,1.12-8.81,1.12-13,.77-6.15,3.82-11.9,5.91-17.86,1.14-2.87,2.11-6,3.25-8.83,1.14-3.63,1.52-7.1,3.8-10,6.22,3.94,12.3,3.84,15.3,10.89l2.63,16c0,.93.74,2.87,2.08,1.71,5-3.25,3.44-10.55,3.44-15.53,1.13-6-3-8.85-4.78-14-1.32-1-3.51-5.55-3.51-5.55-.75-4.23-10-7.12-7.91-12.31,1.15-4.42,2.31-8.45,6.49-10.93a1.87,1.87,0,0,1,.93,1.35l2.3-1.59.25-16.07c6.18,0,15.38.78,21.66.78,1.72.58,3.06,1.92,5,2.12l1.54-2.12,15.43-3c-6.56.73-10.55-6.8-16.77-6.8"/><path class="cls-1" d="M347.43,164.8a9.52,9.52,0,0,0,1.42-.27l-1.42.27"/><path class="cls-1" d="M181.49,218.24a4.27,4.27,0,0,1-2.85,4.41c-1.54-.57-2.68-.75-3.62-2.28-.77-2.13,1.13-3.66,2.66-4.42,1.52.4,3.44.56,3.81,2.29"/><path class="cls-1" d="M169.1,218.24a4.2,4.2,0,0,1,.76,4.41c-1.34,1.18-3.42,2.11-4.58.58-1.13-1.14-2.27-2.5-1.33-4,1.33-1.34,3.63-2.5,5.16-1"/><path class="cls-1" d="M434.32,220.37l.17.27"/><path class="cls-1" d="M579.47,223.62c.79,2.1-.92,3.65-2.46,4.44-1.91-.6-4.37-1-4.37-3.47a3.59,3.59,0,0,1,2.84-2.87c1.73-.61,3.22.76,4,1.9"/><path class="cls-1" d="M589.56,223.23c.58,1,1.93,2.48.38,3.47a6.62,6.62,0,0,0-1.89,1.54c-2.09.38-4-.39-4.57-2.33-.38-2.09,1.33-3.07,2.86-4,1.31-.4,2.26.58,3.22,1.33"/><path class="cls-1" d="M121.27,225.53c-.75,2.31-2.66,3.29-5.13,2.53a7.91,7.91,0,0,1-1.52-2.53c.19-1.34.56-2.68,2.09-3.25,2.28.22,4,1.15,4.56,3.25"/><path class="cls-1" d="M185.49,228.81c-.2,1.53-1.93,2.85-3.25,3.63-1.91.21-3.24-1.34-4.18-2.69,0-1.51.76-3.44,2.27-3.83,2.1-.77,4.37.78,5.16,2.89"/><path class="cls-1" d="M174.25,227.46a3,3,0,0,1,.58,3.05c-1.16,1-2.87,2.69-4.77,1.57-1.14-1-2.48-1.74-2.09-3.66a8.2,8.2,0,0,1,2.86-2.29c1.52-.41,2.28.58,3.43,1.33"/><path class="cls-1" d="M618.73,229.75c0,1.55-1.51,3.09-2.48,3.65a3.7,3.7,0,0,1-4.18-1c-1.15-.36-.77-1.94-.77-2.87a6.68,6.68,0,0,1,3.63-2.5,7,7,0,0,1,3.8,2.68"/><path class="cls-1" d="M630.93,231.5c-.6,1.71-1.93,3.25-3.63,3.44-1.13-.19-3.2-.57-2.84-2.31a3.3,3.3,0,0,1,1.71-3,3.38,3.38,0,0,1,4.77,1.91"/><path class="cls-1" d="M143,234.17c.37,2.31-.38,3.86-2.3,4.61-1.32.77-2.66-.19-3.61-1-1-1-1.71-2.5-1-3.85.38-1.73,2.1-1.35,3.24-2.11a4.78,4.78,0,0,1,3.62,2.3"/><path class="cls-1" d="M152.34,235.91c.55,1.52-1.15,2.12-1.53,3.25-.94.57-2.27,1.15-3.43.4-1.33-1.15-2.85-2.88-1.54-4.62,1.54-2.85,5.54-1.33,6.5,1"/><path class="cls-1" d="M607.48,234.93c.18,1.92-1.52,3.26-2.65,4.42a3.28,3.28,0,0,1-3.82-2.29c-.19-1.57.77-2.7,2.1-3.66,1.72-.2,3.43,0,4.37,1.53"/><path class="cls-1" d="M623.09,238c-.36,1.7-.16,3.63-2.07,4.76a5.29,5.29,0,0,1-4.57-.73,3.5,3.5,0,0,1-.77-4,4.47,4.47,0,0,1,4.59-2.31c1.33.76,1.69,1.74,2.82,2.31"/><path class="cls-1" d="M135.77,242.05c.75,1.52-1,1.9-1.53,2.69-1.34.76-2.67.16-3.81-.39-1.32-.77-.77-2.69-.56-3.65,1.71-3.27,5.15-1,5.91,1.35"/><path class="cls-1" d="M611.11,245.68c.75.2.39,1.36.2,1.75-4.59,2.3-11.42,2.87-15.44-.79-2.29-1.9-5.15-2.69-7.62-4.23.94-2.46,4.37-2.29,6.85-2.86,5.53.76,9.92,5.95,16,6.13"/><path class="cls-1" d="M144.9,244c.37,1.55-.74,2.13-1.14,3.29-.76,1.13-2.29.76-3.23.37-1.72-1.16-2.48-3.26-1.33-4.79,2.09-2.12,4.56-1,5.7,1.13"/><path class="cls-1" d="M161.67,245.11c.76,1.74-.38,3.27-1.9,4.23-1.34.76-2.5-.39-3.63-.58-.94-1.32-2.66-2.89-.94-4.41,1.7-2.88,5.13-1.34,6.47.76"/><path class="cls-1" d="M381.95,253.23c-.36,3.82-6.71-.57-5.81,4.55.91,3.66,1.64,8,3.81,10.78,1.83,2.53.9,6.54.73,9.63a17.33,17.33,0,0,1-7.25,6.22c-5.44-.57-13.39,2.72-15.93-4-1.08-2.93-3.09-5.82-3.09-9.12.56-.36,1.29-.36,1.82-.9,0-1.29-1.43-2-1.25-3.3,6.15-1.09-2.53-6.56,2.71-6.91,4.33,4.54,11.39,3.08,15.19,8,.89.71,1.64,1.83,2.71,2.35-.71-4.55-2.87-9.11-3.62-14a6.36,6.36,0,0,1,2.18-6.4c3.27-2.55,6,1.09,7.8,3.11"/><path class="cls-1" d="M178.44,252c.58,1.93-1,3.07-2.1,4-1.73.77-2.67-1.14-3.44-2.09-.57-1.93.77-2.89,1.92-3.84a4.13,4.13,0,0,1,3.62,1.91"/><path class="cls-1" d="M296,254a26.27,26.27,0,0,1-2.3,21.46c-.17,1.54.38,4-1.71,3.85-5.12-7.1-1.33-17.07.77-24.56.38-1.92,2.66-2.69,3.24-.76"/><path class="cls-1" d="M459.09,257.58a21.57,21.57,0,0,1,.37,17.83L457.91,277a45.3,45.3,0,0,1-4.37-13.63c1-3.44,2.09-6.51,2.31-10.15,2.64-.59,2.48,2.87,3.24,4.41"/><path class="cls-1" d="M193.29,259.7c-1.14,2.31-4.36,2.87-6.48,4.42-4.57,3.47-11.23,4.2-17,3.26,5-6.9,12.58-11,21.71-9,.41.76,1.36.39,1.73,1.35"/><path class="cls-1" d="M115,266.6c7,5,9,11.9,13.15,18.81.56.77,2.46,1,1.72,2.49-1.54,1.15-3.05-1.14-5.14-.77-7.25-3.25-11.83-11.3-11.64-19.74,0-.79,1.14-.79,1.9-.79"/><path class="cls-1" d="M451.65,272.54c.2,1.93-.18,3.85-1.71,4.42a3.49,3.49,0,0,1-4.39-2.31c-.58-1.32.58-2.11.94-3.07,1.54-1.53,4.21-.73,5.17,1"/><path class="cls-1" d="M532,282.73c0-3.65.95-7.12,1.35-10.56a7.27,7.27,0,0,0,.74-4c4.59-6.12,13.93-4.2,21.14-3.63,2.88,1.55,6.47,1.32,9.53,2.09a7,7,0,0,1,4.78-.94c6.09-3.27,2.1-10.37,2.48-15.93L569.78,244a22.81,22.81,0,0,1-1.53-3.83c-1.13-1.34-1.9-3.83-3-5.19-3.24-8.43-9.54-13.22-14.88-19.94-9.74-12.65-24.94-19.75-40.2-24.76-15-5.19-30.3,1.53-43.79,6.33-4.19-1.14-6.3-4.42-7.45-8.08a38.38,38.38,0,0,1,3.62-20.32c.58-4.8,3.83-8.42,5.15-12.84,3.44-10.73,7.05-21.32,7.8-33,.38-7.12-4.94-12.08-10.27-15.18-3.63-.94-7.82-.76-10.47,2.13-2.5,5.16-7.81,8.63-12.4,11.13-.37,3.28,3.62,1.13,5,2.3,4.21.76,9-.58,12.4,2.12.37,7.68-4,14-8,19.79-6.48,9.55-13.34,19.34-17.33,29.91l-.8-.79,1,46.92c6,10.11,13.64,21.65,25,25.44,6.08,5,13.73,10.93,21.9,6.51,4.41-1.34,4.77,4.79,6.85,7.3C490.5,267,485.37,272,485,278.5L480,289c-5.72,11.15-10.87,23-19.65,32.44-2.84,0-4.55,3.06-7.41,3.26-1.51,2.09-4.57.58-6.5,1.34-5.89,2.48-14.27.95-18.28,6.53a2.41,2.41,0,0,0,1.52.92c11.62.22,24.6,1,37,.42a4.55,4.55,0,0,0,3-3.65c-1.71-3.28.58-6.15,2.09-8.64,1-4.61,4-7.5,5.34-11.9,4-7.85,8.58-15.53,13-23.39l5.9-9.58a65.93,65.93,0,0,1,5.91-10.75,24.9,24.9,0,0,0,3.42-5.21c.22-1.92-.75-2.68-1.9-4,1.35-1.34,3.44-1,5.15-1.34,4.79,2.9,9.71,7.48,10.68,12.66l1.73,5,.74,2.32-.38,6.32.77,6c1,9.21-.77,18.62-1.73,27.84-3.23,11.13-16,10-25.13,12.46-2.31,1.53-6.67.78-6.67,4.62,11,2.31,24,.92,35.82.78,1.87-.78,2.28-2.51,3.22-4.25.38-2.49,2.88-4.6,2.11-7.29-2.11-2.68-.19-6.91-.76-10.55a5.94,5.94,0,0,0,0-3.65c1.53-5.57,1.15-12.28,2.29-17.67l.76-7.27"/><path class="cls-1" d="M625.78,275.24c-6.11,8.64-12.58,18.42-23.26,21.48-.74,0-1.53.38-1.89-.58,6.48-6.91,9.9-17.65,20-20.13,1.53-.78,3.62-1.54,5.17-.78"/><path class="cls-1" d="M105.66,284.65c-1,.76-.19,2.48-1.91,2.7-1.52.76-3.23-.22-4-1.77-.77-1.89.95-3.83,2.48-4.2,1.52.76,3.05,1.34,3.43,3.27"/><path class="cls-1" d="M160.53,287.35c.57,1.7-1.33,1.7-2.3,2.08-8,2.87-16.17.21-21.89-5.55,0-.79,0-1.52.76-1.74,7.8,1.94,17,.41,23.43,5.21"/><path class="cls-1" d="M116.14,284.82a5.09,5.09,0,0,1,.38,2.89,4.2,4.2,0,0,1-4.76,1.72,6,6,0,0,1-2.48-2.46,4.56,4.56,0,0,1,3.24-3.66,5.89,5.89,0,0,1,3.63,1.52"/><path class="cls-1" d="M294.65,285.8c.39,1.7-1.13,2.87-2.27,3.63a3.74,3.74,0,0,1-4-1.53c-.58-1.33,0-3.25,1.33-3.64,1.73-.36,4.37-.21,5,1.55"/><path class="cls-1" d="M633,286.56c.58,1.92-1.15,2.87-2.48,4-1.13.57-2.49,0-3.62-.6-.2-.95-1.33-1.71-1-3.06a4.12,4.12,0,0,1,4.38-2.28,17.93,17.93,0,0,1,2.69,1.92"/><path class="cls-1" d="M645.62,285.8c1.13,1.7.16,3.07-.79,4.42a2.61,2.61,0,0,1-3.42,1.15c-1.15-1.15-2.67-1.74-2.86-3.48,0-1.51,1.71-2.66,2.86-3.25,1.9-.76,2.65,1.15,4.21,1.15"/><path class="cls-1" d="M97.65,291.38c.2,1.33-.95,2.09-1.32,3.24-1,.36-1.9,1.15-3.05.77a5.68,5.68,0,0,1-2.85-3.08,5,5,0,0,1,3.42-3.82c1.53.39,3.26,1.15,3.81,2.89"/><path class="cls-1" d="M498.88,291.38a5.32,5.32,0,0,1,.2,2.47c-1.13,1.53-2.64,2.87-4.57,1.92-1.13-1.15-2.48-2.31-1.89-4,1.53-2.1,4.78-2.86,6.27-.36"/><path class="cls-1" d="M128.33,294.25c-.37,1.33-.95,2.67-2.68,2.85s-2.29-1.33-3.22-2.09c0-1.74-.21-3.47,1.51-4.42,2.28-.76,4.38,1.17,4.38,3.66"/><path class="cls-1" d="M110,294.62c.58,1.91-.77,3.27-1.91,4.23-2.26.75-4.18-1-5.12-2.7a5.35,5.35,0,0,1,3.43-4.39c1.7,0,2.66,1.9,3.61,2.86"/><path class="cls-1" d="M511.46,294.25c.37,1.89-.19,3.82-2.09,4.59-2.29.75-4.21-1.16-5.14-2.7.93-1.53,1.13-3.66,3.41-4a4.37,4.37,0,0,1,3.82,2.14"/><path class="cls-1" d="M119,295c.59,1.35-.54,1.91-1,2.87-.94,0-1.5,1.17-2.64.76-.77-1-2.3-1.32-2.48-2.68-.19-1.91,1.13-2.87,2.48-3.66,1.9-.18,3.05,1.16,3.6,2.71"/><path class="cls-1" d="M622.53,296.53c-.56,1.55-1.71,2.32-3.22,3.07-1.53.4-2.5-1-3.63-1.52-1-.76-.58-2.5-.18-3.46,1.91-3.24,7-1.72,7,1.91"/><path class="cls-1" d="M637,297.32c-.6,2.11-2.69,3.05-4.57,3.24-1.73-.76-3.63-2.11-2.28-4.42.75-.76,1.11-1.53,2.28-1.73,2.26-.75,4,1,4.57,2.91"/><path class="cls-1" d="M546.53,298.64c.94,2.49-1.33,3.28-2.86,4.42a9.21,9.21,0,0,1-3.63-1.52,4.43,4.43,0,0,1,2.7-5c1.7,0,2.64.78,3.8,2.1"/><path class="cls-1" d="M494.15,301c.94.38.56,1.72.36,2.3-1.13.76-2.64,2.69-4.37,1.54-1.33-.79-2.28-1.92-1.93-3.66,1-2.08,5-2.29,5.94-.18"/><path class="cls-1" d="M504.8,302.31a2.6,2.6,0,0,1-1.51,3.05c-1.35,1.37-2.88-.2-4.21-.57a3.12,3.12,0,0,1-.2-2.87,4.19,4.19,0,0,1,2.48-1.55c1.35.39,2.86.39,3.44,1.93"/><path class="cls-1" d="M181.49,302.48c1.13,1.15-.2,2.52-.37,3.67-1,1.14-3.05,2.1-4.77.94-1.92-.77-1.73-3.27-1.33-4.79,1.13-.38,1.13-1.74,2.66-1.74a6.86,6.86,0,0,1,3.81,1.92"/><path class="cls-1" d="M566.91,303.25c.36,1.93-1.53,2.69-2.86,3.08-2.31.77-3.44-1-4.37-2.5,0-1.16,1.13-1.91,1.51-2.85,2.66-1.18,4.39.76,5.72,2.26"/><path class="cls-1" d="M556.62,303.25c.75,1.93-1.35,2.91-2.11,3.85a3.85,3.85,0,0,1-4.19-.77c-1-.59-1-1.73-1-2.89,1.15-1,1.73-2.11,3-2.45a5,5,0,0,1,4.21,2.26"/><path class="cls-1" d="M642.56,305.55c.37,2.7-3,1.36-4.4,2.11-8,4.79-18.3,1.15-25.9-1.73.56-2.5,3.39-1.53,4.94-2.5,8.19-5.18,16.59,1.16,24.76,1.56l.6.55"/><path class="cls-1" d="M121.09,303.25l-.75,1.35c-7.07,4.22-16.22,7.08-24.56,4.42L95,307.86c7.06-5.19,16.4-6.53,25.54-5.19l.57.58"/><path class="cls-1" d="M586.35,304.6a4.31,4.31,0,0,1-1.93,3.65c-1.87.57-4.35,0-4.93-2.1-.58-1.55.94-3.08,2.46-3.67,1.34,0,3.65.19,4.4,2.12"/><path class="cls-1" d="M155.21,305.36c-.77,1.54-.4,3.07-2.31,3.86s-4.18-1-4.75-2.52c-.58-2.09,1-2.69,1.91-3.63,2.27-1.15,4,.57,5.15,2.29"/><path class="cls-1" d="M141.67,306.33c.58,1.33-.57,2.09-1,3.05-.94,1.18-2.67,1-3.81.59-1.33-1.15-2.67-2.5-2.09-4.61a10.85,10.85,0,0,1,3-2.11c1.72.39,3.44,1.15,3.82,3.08"/><path class="cls-1" d="M599.67,310.74a4.11,4.11,0,0,1-3,3.45c-1.54.2-2.86-1-3.61-1.92a2.93,2.93,0,0,1,.75-3.63c.36-.6,1.71-.6,2.46-1a4.13,4.13,0,0,1,3.44,3.08"/><path class="cls-1" d="M127.56,308.63c.58,1.54-.75,2.12-1,3.26-.55,3.29-2.65,5.38-4.16,8.25-3.64,4.42-8.78,4.42-13.91,5.74l-.78-1.48c5.52-7.13,11.44-12.69,19.24-16.17l.58.4"/><path class="cls-1" d="M590.14,312.84c.39,2.34-1.53,2.7-2.84,3.66a4.35,4.35,0,0,1-3.82-2.31c-.58-2.11,1.33-2.9,2.48-3.85a3.83,3.83,0,0,1,4.18,2.5"/><path class="cls-1" d="M149.47,312.84c-.18.38.21.77.59,1-.19,2.13-1.72,2.7-2.86,3.64a5.14,5.14,0,0,1-4.19-1.9,3.2,3.2,0,0,1,1.9-4.41c1.73-.21,4,0,4.57,1.71"/><path class="cls-1" d="M625.21,318.6c1.91-.17,2.28-2.49,4.39-2.88a4.64,4.64,0,0,1,4.55,2.12c.77,2.31-.94,3.47-2.48,4.42-1.34,1-4.18-1.15-4,1.33a5.93,5.93,0,0,1,2.65,3.86c-.37.77-1.69.57-2.29.2-5.52-2.32-11.42-6.15-13.69-11.92-.77-1.71-4.41-3.06-2.28-4.58,5.53-.39,10.1,4,13.13,7.46"/><path class="cls-1" d="M643.5,312.69c.95.92.56,2.64-.19,3.62-1,1.93-3.8,1.14-5.54,1-.94-1-1.89-1.95-1.51-3.47a6.23,6.23,0,0,1,2.86-2.49c1.71-.36,3,.37,4.37,1.37"/><path class="cls-1" d="M574.35,323a29.19,29.19,0,0,1,4.19,7.69c-.41.57-1.35.38-1.71.38-6.5-3.64-14.86-7.7-17.34-15.33-.58-.79-2.11-1.74-1.92-3.06,5-1,9.72,2.64,13.15,5.35,1.35,1.91,2.86,2.89,3.63,5"/><path class="cls-1" d="M138.81,315.72c.75,1.73-.76,3.07-1.71,3.86a4.45,4.45,0,0,1-4.4-1.55c-1.33-2.08,1.17-3.84,2.69-4.61,1.51-.19,2.48,1.35,3.42,2.31"/><path class="cls-1" d="M598.15,320.14c.2,1.16-1.33,1.92-1.91,2.69-1.52.19-3,.78-4.38-.57-.36-1-1.29-2.49-.16-3.45,2.09-2.7,5.13-.58,6.46,1.33"/><path class="cls-1" d="M645.62,322.83c.55,2.3-1.18,3.85-2.69,4.78-1.93.6-3.42-.76-4.57-1.7-.95-1.15-.2-2.31,0-3.65,1.32-1.16,3-2.12,5-1.33a10.87,10.87,0,0,1,2.31,1.9"/><path class="cls-1" d="M513.75,349.32c0,2.27-4.2,1.7-5.91,3.44-5.9,3.07-13,3.07-20,2.88V354.5a28.14,28.14,0,0,1,25.89-5.18"/><path class="cls-1" d="M235.77,357.55a3.58,3.58,0,0,1-2.84,3.26,3.72,3.72,0,0,1-3.26-1.91c-.76-2.3,1.16-3.25,2.5-4.22a4.47,4.47,0,0,1,3.6,2.87"/><path class="cls-1" d="M510.5,359.67c-.36,1.72-1,3.65-2.86,4.42-1.71.36-2.84-.59-4.19-1.35-.93-.76-.36-2.11-.55-3.06a4.09,4.09,0,0,1,7.6,0"/><path class="cls-1" d="M548.44,360.45c-4.75,3.05-10.1,6.68-16.39,6.68L521.75,367l-1-.76c6.28-7.69,17.72-7.69,27.64-6.9v1.14"/><path class="cls-1" d="M183.57,365a3.5,3.5,0,0,1-2.45,3.65,3.56,3.56,0,0,1-4-1.74,3.48,3.48,0,0,1,1.55-4.42c2.09-1.36,4.19,1,4.93,2.51"/><path class="cls-1" d="M193.1,367c.58,1-.38,1.56-.75,2.51-1.15.56-2.68,1-3.63,0a2.44,2.44,0,0,1-1.15-3.26c.59-1.15,1.72-1,2.3-1.73,1.34.58,2.67,1.13,3.24,2.49"/><path class="cls-1" d="M120.15,386.35c-1.91,2.3-5-.58-7.06-1.73-6.66-3.83-6.47-11.33-13.14-15.74.76-2.29,2.47.2,3.8-.18a27.19,27.19,0,0,0,4,2.09c6.48,3.65,8,9.8,12.4,15.55"/><path class="cls-1" d="M372.57,382.71c-.74,2.31-2.27,4.22-2.09,6.72l-.77.37c.59-2.87-2.27-4.59-1.51-7.68-1.52-2.29-1.52-5.19-2.86-7.68-1.72-3.06,1.52-4.42,2.86-6.52,2.68,1.15,3.63,3.65,5.52,5.95,1.15,3.26-1.33,5.77-1.14,8.84M675.5,311.89c-3-5.56-8.19-7.89-14.31-7.89-4.93.42-8.56,3.66-10.65,7.89a9.63,9.63,0,0,0,3.63,10.54,2.93,2.93,0,0,0,3.8-.94c.93-2.5-1.71-2.5-2.11-4.42a6.41,6.41,0,0,1,2.11-6.72c1.92-1.92,5.12-.94,7.43-.94,2.26,1.52,4.57,2.87,5.7,5.55a15.34,15.34,0,0,1,0,10.16,16.92,16.92,0,0,1-11.8,9.61c-15.83,2.29-189.39,1.53-189.39,1.53-20.37,1.92-43.6-3.83-61.13,6.91-8,3.84-12,12.67-14.11,20.53a139.08,139.08,0,0,0-14.87,15.15l-.54-.58c.94-4.59,3.05-8.61,4-13.22,2.82-3.87,2.82-9,4.93-13.27,7.26-11.67,14.09-23.57,25.34-31.83,4.76-6.33,13.13-5.18,20.36-5.18,7.84,3.67,17,4.81,26.48,3.83a1.67,1.67,0,0,0,.6-1.33c-2.69-2.5-7.07-3.46-10.1-6-7.63-3.65-14.88,1.14-22.87.58-.38-.4-.77-.58-.58-1.15,7.24-5.39,15.42-9.19,23.61-12.67,6.69-3.66,13.75-5.56,20.78-8.24,2.86,0,5.53-2.49,8.2-.79l10.1-2.66c.38.18.76.74,1.51.54,8.58-2.85,19.43-.18,29.15-.37l1.35,1.15,9.14,2.29c3.44.41,4.95,4.42,8.57,4.62,1.88-2.68-2.11-3.83-3-5.57,4.2-.94,8.94.19,12.77,1.93l-1.9,2.11c-1.15,2.12.55,3.63,2.28,4.4,1.32.4,2.28-.57,3.22-1,2.48-1.74-.19-3.44.6-5,14.09,2.51,27.61,5.95,40.57,11.52,3.6,1.16,7,3.84,11,3.66-4-3.66-9.52-5.6-14.47-7.68-3.25-1.95-7.81-2.13-10.29-4.8.55-1,1.93-.59,2.48-1.35,6.48-.78,12-5.55,16.57-10.76.38-1.13,2.47-.76,2.3-2.31-1.73-1.91-4.58.59-6.87.4-8,1.52-11.42,10.93-19.43,12.67-9.72-2.31-19.63-4.61-29.34-7.1-4.78-.76-9.91-1.15-14.29-3.07l-10.67-1H501.94c-.17-.37-.75-.57-.58-1.13,6.88-1.73,12.77-5.77,19.65-7.5l51-23.39A126.8,126.8,0,0,0,586.53,234a3.63,3.63,0,0,0-2.11-3.64,3.12,3.12,0,0,0-3.8.77c-2.29,1.71,0,3.83,0,5.94a32,32,0,0,1-8.76,7.5c-.78-.19-52.58,23.59-52.58,23.59-7.63,3.28-15.25,6.94-23.25,8.63l-11,1.74a7.21,7.21,0,0,1-4.79,4.41c-3,.59-5.5,2.5-8.75,2.5-24.77,9.61-50.48,19.77-70.1,39.35a21.66,21.66,0,0,0,1.9-8.06c-.39-2.89-.19-6.14-2.09-8.47-.45-1-1.86-4.13-1.39-5.23l-2.8,1.79c-1.73,4.23-3.25,11.91-1.52,16.3.56,3.46,3.42,7.47.75,10.56-9.16,11.13-14.31,24.58-20.38,37.21-2.3-.36-3.45-2.5-4.41-4.61,6.51-8.23,11.66-17.47,13.54-28,1.34-1,.39-3.46,1.73-4.6-.39-3.08,1.71-6.14.19-8.64,1.2-4.17-5.57-8-1.24-10.74L382,314c-8.18,10.75,4.27,26.87-5.09,37.2V352c-2.64,3.46-4,6.89-7.6,9.18-4.57-1.88-6.29-7.07-9-10.92-4.18-4-4.18-12.27-1.71-17.83,1.71-5.58-1.14-10.37-1.71-15.36l-1.9-1.13c-4.57,5.93-6.29,15.33-2.68,22.45,1.91,3.42,2.1,8.25,5,11.1,1.7,5.58,5.14,9.21,8.18,14.2.78,1.92-1.13,2.31-2.09,3.26-2.08-1.34-1.7-4.42-3.61-5.78-6.28-13.41-14.5-24.17-24.38-35.09-.37-1.7-2.1-3.27-1.15-5.17,3.62-3.48,4.37-10.18,2.45-14.59-.35-1-1.5-2.11-1.3-3.08l-2.86-2.3c.39,6.71-4,12.66-2.09,19.78v.36a361.71,361.71,0,0,0-63.42-38.3l-1.75,4.86c5.58,1.4,20.39,10.43,20.39,10.43,6.67,2.49,12.76,6.52,19,10.15,25.92,14.43,43.07,38.2,54.69,64.67.18,2.12,2.08,4.42.76,6.53-4-6.15-9.71-9.59-14.48-14.57-1.36-9-6.65-17.67-14.48-21.32-2.86-4.2-9-4.61-13.73-6l-69.35-.36c-56.38-.79-107.82,1.72-163.84.78-7.79-.78-17.34-3.47-19.61-11.71-1.52-2.87-1.52-7.86,0-10.54,2.09-3.66,5.89-4.83,9.7-5.19,3.05.36,5.13,3.25,6.48,5.38,0,2.49-2.1,4.79-3.05,6.89.2.76.95,2.3,2.3,1.73a9,9,0,0,0,5-6.12c.18-1.36.75-3.28-.59-4.24-1.14-4-5.33-6.89-8.94-7.85-4.76-.4-9.73,1-13,4.41-4.57,3.84-4.38,10.75-3.05,16.11,3.05,8.45,12,14.2,20.58,15.35l185.36.78c18.11,1,38.49-2.1,56.79,1.53,6.68,2.13,13.73,7.09,15.43,14.59-.18.37-.76.21-1.32.21-15.07-9.81-34.86-13.45-54.12-11.14-7.64-.4-14.48,2.48-21.32,4.4-3.64.78-7.06-1-9.35-3.08-6.87-6.14-18.87-5.75-27.63-3.45,0,.6-.18,1.15.2,1.37,9.34-.76,14.87,7.28,23.24,8.24,1.92.39,3.43-1.75,5.15-.18-8.76,4.21-17.16,9.19-26.48,11.89-2.86-.57-4.38-3.25-6.68-4.81-3.6-4-10.27-2.3-15.23-2.68-1.71.39-3.21-.77-4.37,0,1.52,3.07,5,4.79,8.19,6.34,4.76,2.08,10.28-.2,14.67,2.67-1.16,1.35-2.67,1.73-4,2.7-9,3.45-16.4,11.5-26.28,10.93-10.49,1.14-21.16-1.91-28.22-9.21-3-7.5-10.84-11.49-19.23-11.12-.57.38-1.32.38-1.14,1.33,4.2,2.51,7.44,7.49,11.62,10.37,2.67,3.26,7.81,0,10.29,3.63a33.47,33.47,0,0,0,12.39,5.38c3,1.36,6.49,1.91,9.91,2.69l-1.34.78c-17.33,5.75-37.33,6.35-56.77,5.57-5.72-.2-11.24-1.94-17-1.72a10.79,10.79,0,0,0,4.58,2.68,12.13,12.13,0,0,1-5.16,1.55c-2.28.57-4.94.76-7.23,1.92-3-.2-5.71.93-8.19,1.91-3.24,3.44-7,7.08-10.85,8.82,0,.76-.2,1.92.75,1.92,3.63-1.53,8.21-.4,11.82-1.92,6.28-.59,9.91-7.49,14.87-10.36,5.32-4.23,12.93-3.27,19.42-2.29,3.82.94-.38,2.49.77,5,1.51,1.33,2.84,2.87,5,2.29a3.35,3.35,0,0,1,1.33-1,4.46,4.46,0,0,0,.2-4.81c2.65-1.72,6.28.22,9.14-.94,7.25-.21,14.48-1.74,21.53-1.93,1.13-.19,2.46-1.34,3.61-.19-.56,1.55-2.47,1.73-1.72,3.84.4,1.72,2.3,2.49,3.83,2.88,1.9-.77,3.61-2.11,2.85-4.6-.37-1.36-1.9-1.55-2.85-2.12,4-1.93,8.57-2.5,12.57-4.42a35,35,0,0,0,8-2.68c2.46-.2,4.57-2.5,6.84-1.54a39.15,39.15,0,0,1-4,9.2c-3,10.16-5.31,23.62,0,33.39.59.19.77-.17,1.14-.38-4-10.16-1.7-21.87,1.73-31.46,2.65-16.32,19.42-21.12,31.43-27.25l.56.77c-3.23,8.42-8,16.5-7.23,26.67.38,1.73-.76,3.44,0,4.6,3.25-1.72,5.35-5.58,7-8.84,1.34-8.63-3.6-19.37,5.16-25.71,15.63-6.14,30.28-14.18,48.39-14.39.57.58,1.9-.39,2.11.76-3.84,4.24-9.33,8.26-11.06,13.45-6.09,8.42-5.91,22.84-3.24,33.2,1.71,5.92-3.44,9.21-5.91,13.81-1.17,1.62-1.5,4.43-2.6,6.31l3.75.4c3.23-3.45,6.28-7.66,6.46-12.65a5.29,5.29,0,0,0,3.63,3.83c1.33-2.12-1.15-3.66-1.33-5.78,3.05-1.7,4.38,2.12,6.87,2.89,4,1,7.42,2.68,11.59,2.68l1.35-1.33c-4.2-6.53-12.58-7.68-19.82-8.07-3.81-6.32-3.81-14.2-3.44-21.88.78-4,1.52-8.24,3.82-11.87,1-2.7,3.62-5.2,5.33-7.28a26.62,26.62,0,0,1,12-6.54h.59a1,1,0,0,0,.17.59c-5.14,4-5.7,9.58-8.75,14.57-3.25,4.78-4.75,11.31-1.72,16.69,1.16,2.49.58,6.32,3.25,8.08,2.47-3.48,2.65-7.91,4-11.73-.59-6.32-4.39-12.27-.77-18.42,1.91-4.8,5.9-6.71,10.27-8.43,10.5-1,19.64,4.4,28.78,8.43,1.91,1.34,5.12,2.51,5.54,5.2-.21,5.17-3.05,10.36-7.06,12.85-5.15,3-12.59,3.46-17.36-.19a13.16,13.16,0,0,1-3-11.7c2.09-2.33,4.94-4.25,8.38-3.08,1.9,1,3.62,2.89,6.11,1.74a2.47,2.47,0,0,0,.76-3.1c-2.12-1.13-2.86-4-5.71-4.4-3.64-.56-8-.4-10.49,2.12a13.56,13.56,0,0,0-4.38,13.44,16.43,16.43,0,0,0,11.82,12.28c8.76,2.11,17.91-.59,23.42-8.06,2.3-2.5,2.84-5.19,4.19-8.25,9.14,5.55,16,15.35,19.62,25.32,0,3.26,1,6.71.18,9.58l6.67.59c-.58-1.55,0-3.28.57-4.6,2.5-12.66,10.33-23.21,19.61-31.49,3.27-1.91,2.5,2.51,3.27,3.86,2.86,7.27,9.54,12.46,16.56,14.57,8,1.34,15.63-.58,20.58-6.72,2.48-4.61,5.54-11.32,1.33-16.13a13.16,13.16,0,0,0-10.48-5c-5,0-8,3.48-10.46,7.12,0,1.51-.18,3.24,1.13,4,.77,0,2.31.19,2.88-.94.36-2.87,2.82-4.21,5.12-5.78,2.11-1.14,4.37,0,6.1,1.16,2.11,1.74,2.48,4.61,2.66,7.49a11.54,11.54,0,0,1-6.28,9c-5.54,2.88-13.54,1.55-18.28-1.72-2.28-2.51-3.63-5.38-5.34-8.45-.38-3.07-1.53-5.77,0-8.84,8.37-5,17.15-8.62,27.24-9.57,4,.77,7.43,3.45,10.1,6.3,8.76,9-1.92,21.89,4.19,31.88,2.29-.36,2.29-3.44,3.24-5.37,2.86-6.9-.76-14.4-2.47-21.11-2.31-4.22-3.63-7.88-7.27-11.34a5.07,5.07,0,0,1,2.31-.37c4,2.68,8.4,5.75,11.62,10a51.37,51.37,0,0,1,7.41,31.47c-1.49,5.72-7.58,8.42-12.36,10.54A18,18,0,0,0,440,413c2.31,1.36,5.53,0,7.81-1,3.61-1.33,5.72-5.93,8.2-8.06.36.18.19.77.36,1.17.22,2.08-.91,5,1,5.57.95-2.7,1.15-6.55,1.71-9.81,2.48,2.68,2.86,6.15,3.63,9.61,1.71,3.44,4.57,8.06,9.14,8.63,1.13-1.72-.2-3.46-.58-5-.56-4.77-4.55-7.27-7.24-10.73-6.67-9.21-3.63-23.59-8.78-33.95-1.86-5.58-5.87-9.61-10.27-14.22l.77-.77c9.32-.17,17.15,2.89,25.71,4.61,10.48,5.17,25.73,4,30.66,17.67A50.35,50.35,0,0,0,513,397.47l.55-.37a7.76,7.76,0,0,0,0-7.12c-1.13-9.57-9.53-11.88-13.93-20l.6-.76a124.8,124.8,0,0,1,13.9,4.42c15.24,4.2,25.89,19.18,27.82,34.73a74.86,74.86,0,0,1-7.05,32.79c-.6,1.56-3.24,3.31-1.51,4.64,2.07-1.57,2.46-4,3.61-5.75,6.27-10.6,9.52-25.16,6.27-38.57-.18-2.51-3-4.42-1.72-6.92,1,1.15,2.13,1.32,3.26,1.74,1.15-.79,2.86-.79,3.61-2.14.21-1.14.93-2.49,0-3.44-1.15-1.72-3.61-1.72-5.52-1.33a9.27,9.27,0,0,0-2.33,4.19c-1.86-3.25-3.78-7.48-6.81-10.16l.36-.59c8.59,2.89,16.38,7.1,25.15,9.41a12.49,12.49,0,0,0,6.67,2.14c7.43,2.85,15.62,4,23.42,5.92,5.72-.56,10.5,2.13,16.2.76v-.36l-.19.18c-2.09-2.67-6.66-.18-9.15-2.11a144.4,144.4,0,0,1-37.52-9.38c.2-.59,1-.39,1.54-.39a5,5,0,0,0,3-4.81,5.09,5.09,0,0,0-4.37-2.11c-1.13.59-2.67,1.93-2.86,3.26a4.75,4.75,0,0,0,2.86,3.66c-.38.39-1.13.18-1.71.18-5.92-2.69-11.64-5.17-17.34-7.87-2.11-.39-3.82-2.12-5.91-2.5-4.37-2.09-8.76-4.21-13.15-5.94-12.2-6.32-25.71-9.77-38.64-14.39-2.88-.77-5.55-1.54-8.2-2.28-4.78-1.36-9.54-2.51-14.28-3.85-16.2-4-37.91-4.42-52,4.43-2.27-.79-3.63,2.85-4.77.55,4-10.58,15.63-14,26.09-14.39,76.4-.78,148.05-1.34,223.3-2.5,8.76,0,17.34-3.06,21.91-10.95,3.24-4.61,3.82-12.47,1.34-17.65"/><path class="cls-1" d="M579.3,370.6c0,.59,1.15.76.75,1.74-6.66,5.94-16,7.66-25.53,8.06-.73.19-1.51.76-2.46.56-.58-.37-.77-1-.38-1.33a29.08,29.08,0,0,1,27.62-9"/><path class="cls-1" d="M548.64,373.69c.73,2.68-1,4.2-3.08,5.16-2.09-.18-3.22-1.52-4.18-3.08-.58-1.51.76-2.3,1.35-3.23,1.51-1.54,5.11-1.54,5.91,1.15"/><path class="cls-1" d="M186.44,374.08a3.8,3.8,0,0,1-4.37,5c-1.34-.22-2.1-1.74-2.47-2.89,0-1.73.94-2.68,2.47-3.66,1.5,0,3.22-.17,4.37,1.57"/><path class="cls-1" d="M152.34,386.53v1.36A14.86,14.86,0,0,1,140,385c-2.66-3.84-5.71-7.69-10.09-9.6,0-.57-1.15-1.33,0-1.72,9.52,0,15.25,7.66,22.48,12.84"/><path class="cls-1" d="M608.25,373.87c-4.39,6.53-8.19,14.58-16,17.46-1.32,0-2.45,1.94-3.62.59,3.06-7.3,9.54-15.16,17-18.23a6,6,0,0,1,2.67.18"/><path class="cls-1" d="M197.49,376.17c.18,2.1-1.34,2.5-2.67,3.65-1.52.18-2.29-1-3.26-2.11-.75-2,1-2.7,1.93-3.64,1.51-.39,3.24.76,4,2.09"/><path class="cls-1" d="M632.25,377.33c-1.71,2.5-.94,6.14-2.67,8.82-3.8,4.42-7,9.41-13.13,10.36-1-1.91,1.33-3.81,2.28-5.57,2.64-5.73,6.47-12.27,12.58-14.76l.94,1.15"/><path class="cls-1" d="M93.28,379.07c.57,1.33,1.15,2.68,0,4.23a4.55,4.55,0,0,1-4.38.75,3.58,3.58,0,0,1-1.53-4.61c1.15-1.72,4.58-2.68,5.91-.37"/><path class="cls-1" d="M82.42,381.35c.2,1,.77,1.71.56,2.7a4.52,4.52,0,0,1-2.66,2.3c-2.11.39-3.43-.78-4.38-2.48a3.69,3.69,0,0,1,1.9-4,3.87,3.87,0,0,1,4.57,1.52"/><path class="cls-1" d="M104.9,382.5c.39,1.55.76,4.23-1.52,4.6-2.67,1.15-4.19-.76-5.72-2.32a4.35,4.35,0,0,1,2.3-3.82c1.9-.18,3.61,0,4.95,1.54"/><path class="cls-1" d="M136.15,385c-.19,1.33.19,3.24-1.33,3.63-1,1-2.67.58-3.62.4-.38-1.15-2.49-2.12-1.33-3.47a7.39,7.39,0,0,1,2.66-2.11c1.15.59,2.85,0,3.63,1.55"/><path class="cls-1" d="M650.55,386.35c-.55,1.34-1.33,3.08-2.86,3.08-1.71-.21-3.44-.39-4.37-2.13-.75-2.09.94-3.25,2.47-3.84,1.9,0,4.39.77,4.77,2.88"/><path class="cls-1" d="M615.68,387.3c.22,1.54-1.51,2.68-2.29,3.26-2.66,1.13-5-.77-5.91-2.87a4.88,4.88,0,0,1,3.24-3.46c2.48-.18,3.82,1.14,5,3.07"/><path class="cls-1" d="M639.3,386.92a4,4,0,0,1-1.71,3.28,4.47,4.47,0,0,1-4.57-.77c-1.71-1.55-.38-2.89.77-4.06,1.69-1,5-.76,5.5,1.55"/><path class="cls-1" d="M88.31,390.2c.39,2.08-.36,4-2.26,4.75a4.33,4.33,0,0,1-4.19-2.67c-.21-1.72.35-3.43,1.89-4,1.91-.57,3.44.6,4.57,1.95"/><path class="cls-1" d="M606.16,392.28a4.22,4.22,0,0,1-2.67,5c-1.52.39-2.48-.36-3.61-1.35-.79-.94-1.73-3.05-.21-4,1.54-2.88,5.35-1.72,6.48.36"/><path class="cls-1" d="M190.81,394.42c.75,2.09-1.51,2.49-2.09,3.64-.75.36-2.28.56-2.84-.2-1-1.15-2.1-2.31-1.53-4,.92-.77,1.32-1.55,2.46-1.92,2.12-.57,2.86,1.35,4,2.5"/><path class="cls-1" d="M647.11,395.74c.39,1.35-.76,1.94-.94,2.87a5.16,5.16,0,0,1-4.4.79c-1.72-1-1.72-2.5-1.72-4.23,1.15-.76,1.35-1.74,2.68-2.13,1.71,0,3.8.79,4.37,2.7"/><path class="cls-1" d="M635.3,396.34c.77,2.27-1.33,3.43-2.84,4-.79.19-1.92-.4-2.13.73,5,2.53,8,6.53,11.83,10.18v1.53c-6.85-.17-13.93-1.91-18.85-7.27-1.33-1-3.63-1-5.12-2.31,2.44-2.5,7-1.55,10.47-1.72,2.45-2.7-2.86-4.61.36-6.92,1.17-.18,1.93-1.33,3.46-1a6.52,6.52,0,0,1,2.84,2.71"/><path class="cls-1" d="M557.37,396.51c.4,1-.73,2.08-.95,3.07a3.79,3.79,0,0,1-4.18.76c-1-1.33-2.48-2.47-1.92-4.42,1.53-2.88,6.47-2.3,7,.59"/><path class="cls-1" d="M131.38,403.24c-.57,1.72-1.34,2.87-3.24,3.05a3.71,3.71,0,0,1-3.43-2.29c-.2-1.34.77-2.11,1-3.06,2.11-1.74,5.9-.59,5.71,2.31"/><path class="cls-1" d="M146.82,400.74c0,2.67-2.87,4.22-3.81,6.9-2.86,6.33-8,12.12-15.24,12.69-.78-1.73,2.48-3.87,3.24-5.57,3-6.53,9.14-10,14.66-14h1.15"/><path class="cls-1" d="M552.8,403.42c.2,2.13-1.71,3.65-3.22,4.42-1.74.58-3.06-.77-4-1.55-1.51-1.53-.54-3.05.2-4.6,2.29-2.29,5.53-.39,7.05,1.73"/><path class="cls-1" d="M564.63,404.76a4.74,4.74,0,0,1-3.44,4.23c-.38-.58-1.33-.21-1.9-.37a4.25,4.25,0,0,1-2.47-3.47c1-1,1.34-2.5,2.67-2.67,1.71-.2,4.57,0,5.15,2.28"/><path class="cls-1" d="M176.34,404.57c.18,2.12-1.33,3.27-2.85,4-1.73.19-2.86-1-3.62-2.31-.37-1.72,1.33-2.87,2.27-3.83,2.28-.77,2.87,1,4.2,2.12"/><path class="cls-1" d="M189.5,405.33a4.51,4.51,0,0,1-3.62,3.27c-1.34-.36-2.86-.76-3.44-2.31-.19-1.9,1.35-2.87,2.66-3.81,1.91,0,4,.74,4.4,2.85"/><path class="cls-1" d="M605.58,418.77c1,.76,2.67,1.73,2.29,3.08-3,1.33-5.53-2.11-8.37-2.69a39.69,39.69,0,0,1-9.93-15.35c1.73-1.75,3.63.36,5.17.95,4.35,3.66,8.56,8.45,10.85,14"/><path class="cls-1" d="M612.65,405.33a4.84,4.84,0,0,1-.39,4.22c-1.15,1.92-3.62,1.56-5.33,1.15-1-1.15-2.68-2.67-1.54-4.41.58-1.53,2.28-1.9,3.63-2.47,1.33-.22,2.29.95,3.63,1.51"/><path class="cls-1" d="M207,410.32c.2,1.54.58,3.85-1.31,4.81-1.73.4-4-.19-4.59-2.31-.94-2.29,1.14-2.69,2.29-3.83,1.52-.37,2.48.38,3.61,1.32"/><path class="cls-1" d="M564.05,422.82a27.76,27.76,0,0,1,4.93,13.6c-.55,1.34,1,2.67-.16,3.67h-.75c-8.58-6.15-10.51-14.79-13.75-23.43a1.56,1.56,0,0,1-.75-1.9c1.9-1.74,3.23,1.7,5.15,2.29l5.34,5.78"/><path class="cls-1" d="M231.77,416.28c-.17.17,0,.38.2.38-7.62,5.37-18.29,8.63-27.05,3.44a1.44,1.44,0,0,1,1-1.72c5.53-1.72,10.85-4.42,16.76-3.63l9.13,1.53"/><path class="cls-1" d="M188.34,417.24c-6.47,4-12.37,11.9-20.38,13.81-1.52.59-2.48,2.69-4.38,1.54,3.42-10.36,14.66-15.93,24.76-16.89v1.54"/><path class="cls-1" d="M552.8,425.88c.58,1.53,0,3.64-1.52,4a2.6,2.6,0,0,1-3.6,0c-1.73-.78-1.73-2.51-1.73-3.85.58-1.34,1.89-1.53,2.86-2.12,1.71.39,3,.39,4,1.93"/><path class="cls-1" d="M537,426.84c-1.15,2.68-4.38,4.21-6.85,5-6.49,2.3-12.39-.78-18.11-2.31.17-1.54,2.1-1,3-1.92,6.3-1.33,12.8-2.69,19.45-1a2,2,0,0,1,2.48.21"/><path class="cls-1" d="M188.34,432.39c-.58.77-.77,2.51-2.29,3.07a4,4,0,0,1-3.8-.77c-.39-1.14-1.72-2.1-.78-3.46.39-1.32,1.92-1.72,3.05-2.1a4.06,4.06,0,0,1,3.81,3.25"/><path class="cls-1" d="M199.58,434.12c-.59,1.15-1.13,2.9-2.64,3.64-1.54.36-2.68-.38-3.83-1.34a4.61,4.61,0,0,1-.57-3.83c.4-1,1.72-1.14,2.67-1.71,1.91-.2,3.62,1.71,4.37,3.24"/><path class="cls-1" d="M549.17,436c.2,1.54-.53,2.51-1.33,3.66a3.2,3.2,0,0,1-4.18.77c-1.33-.19-1.71-1.73-2.29-2.69-1.13-1.54.76-2.49,1.35-3.82a4.11,4.11,0,0,1,6.44,2.09"/><path class="cls-1" d="M557.56,435.66c.22,1,.77,1.91.39,2.7-1.13.94-1.9,3.44-4.17,2.48-1.15.36-1.73-1.15-2.29-1.54-.77-1.92-.22-4.8,2.29-5.18,1.69-.58,2.86,1,3.78,1.54"/><path class="cls-1" d="M192.73,441.2a5.25,5.25,0,0,1-1.91,5.22c-2.09.36-4.77.36-5.53-2.14-.19-1.92,0-4.42,2.28-5.55,1.93-.19,4.21.19,5.16,2.48"/><path class="cls-1" d="M203.58,440.46c-.37,5.39-1.51,11.89-6.84,14.95-3.06.6-6.1,3.48-9.16,1.56v-1c4-5.76,11.24-10.16,16-15.55"/><path class="cls-1" d="M519.28,444.87c.76,1.13-.58,2.12-1.15,3.06-1.11,1.33-3.25.77-4.57.22s-1.52-2.5-1-3.87a4,4,0,0,1,2.48-2.09c1.73-.19,3.26,1.37,4.21,2.69"/><path class="cls-1" d="M222.64,453.72c2.65,4.4,1.14,10.34,2.65,15.13-3.24.38-4.56-3.26-6.65-5.17-4.18-5.79-3.62-13.43-5.53-20.15a1,1,0,0,1,1.35-.4c2.85,1.94,4.94,5.58,7.23,8.09-.38,1.35,1.13,1.35,1,2.5"/><path class="cls-1" d="M528.8,446.42c0,1.51-1.71,1.92-2.66,2.84a6.77,6.77,0,0,1-3.63-1.71c-.55-1.9,1-2.48,1.93-3.46a3.17,3.17,0,0,1,4.37,2.33"/><path class="cls-1" d="M551.48,463.5c0,.55-.2,1.71-1.15,1.32h-.74c-5.54-5-11.09-10.57-10.29-18.24l1.13-.16c5.14,4.4,10.86,9.19,11.05,17.08"/><path class="cls-1" d="M537.19,457.34a4.56,4.56,0,0,1-1.71,3.66c-2.09.58-5.33.38-5.72-2.53-.19-1.89,1.9-2.84,2.86-3.8,2.29-.6,3.8,1,4.57,2.67"/><path class="cls-1" d="M524.61,461.38c-2.67,7.07-9.9,10.74-14.88,16.12-1-.6-.56-2.11-.36-2.91,1.9-7.26,7.63-14.37,14.67-17.28,3,.41,0,2.5.58,4.06"/><path class="cls-1" d="M538.9,467.12c0,1.73-1.71,2.48-2.67,3.46a5.5,5.5,0,0,1-4.19-2.13c-.21-1.9,1.33-2.48,2.46-3.44a4,4,0,0,1,4.39,2.11"/><path class="cls-1" d="M397.39,120.27h-2.09c-5.51,0-.83,6.7,2.13,6.7,3.69,0,3.93-6.7,0-6.7M380.33,127c5.52,0,.3-6.7-2.68-6.7h-5.5c-5.53,0-.32,6.7,2.66,6.7Zm-23.15,0c5.52,0,.28-6.7-2.68-6.7H349c-5.52,0-.3,6.7,2.65,6.7Zm40-8.22a4.75,4.75,0,0,1,0,9.51H340.63a4.75,4.75,0,0,1,0-9.51Z"/><path class="cls-1" d="M397.53,206.33c0,2.51,3.37.86,5.83.86s5.85,1.64,5.85-.86c0-3.55-3.35-2.3-5.85-2.3s-5.83-1.26-5.83,2.3m10.59,5.91c2.41,0,2.62-3.34,2.62-6.25,0-6.53-5.19,0-7.83-6.16-1.94,5.21-7.26.42-7.26,6,0,3.86,0,6.44,3.8,6.44Zm-15.95-28.65L403,187.73l10.59-4.14-4.18,15.87,8.41-1.74-2.88,9.63,2.88,9.24-7.47-2,3.24,17.13L403,227.58l-10.82,4.14,4.39-17.13L388,217l2.31-9.62L388,198.11l8.25,1.35Z"/><polyline class="cls-1" points="367.5 201.71 365.64 201.48 366.52 203.11 365.09 204.58 366.9 204.94 366.9 206.94 368.61 205.67 370.34 206.94 370.34 204.94 372.13 204.58 370.7 203.11 371.61 201.48 369.71 201.65 368.61 199.71 367.5 201.71"/><polyline class="cls-1" points="359.11 212.48 357.26 212.29 358.16 213.92 356.72 215.38 358.54 215.72 358.54 217.73 360.24 216.48 361.97 217.73 361.97 215.72 363.77 215.38 362.33 213.92 363.22 212.29 361.33 212.45 360.24 210.51 359.11 212.48"/><polyline class="cls-1" points="373.34 211.11 371.48 210.92 372.36 212.52 370.94 214.01 372.75 214.34 372.75 216.38 374.46 215.08 376.18 216.38 376.18 214.34 377.99 214.01 376.56 212.52 377.43 210.92 375.54 211.09 374.46 209.15 373.34 211.11"/><polyline class="cls-1" points="374.76 221.46 373.7 221.33 374.21 222.26 373.41 223.1 374.42 223.29 374.42 224.43 375.39 223.7 376.34 224.43 376.34 223.29 377.37 223.1 376.56 222.26 377.08 221.33 375.99 221.43 375.39 220.33 374.76 221.46"/><polyline class="cls-1" points="361.23 233.64 361.23 230.18 358.13 229.61 360.55 227.07 359.04 224.3 362.23 224.63 364.15 221.27 366.03 224.59 369.25 224.3 367.76 227.07 370.17 229.61 367.07 230.18 367.07 233.64 364.15 231.46 361.23 233.64"/><polyline class="cls-1" points="367.94 52.64 374.66 69.13 391.66 64.13 383.04 79.72 397.51 89.97 380.03 92.9 381.1 110.7 367.94 98.74 354.8 110.7 355.86 92.9 338.38 89.97 352.87 79.72 344.25 64.13 361.23 69.13 367.94 52.64"/><path class="cls-1" d="M306.48,422.68c-2,.77-2.81,1.32-2.31,3.41l2.38,10.12c.45,1.88.58,4.83-.66,6.64-1.5,2.15-4.62,3.55-6.91,4.1-1.64.38-5.24,1-8.14-.17-1.88-.82-3.12-1.67-3.95-5.1l-2.51-10.58c-.62-2.67-1.63-2.51-3.79-2.2l-.18-.79L293.18,425l.19.79c-2.48.72-3.63,1-3,3.82l2.51,10.57c.45,1.81,1.46,6.2,6.92,4.91,6.65-1.63,5.56-6.5,5.08-8.54l-2.29-9.66c-.46-1.93-1.15-2.9-4.45-2.24l-.17-.79,8.32-2,.18.79"/><path class="cls-1" d="M325.41,424.82c-1.15-2.11-4.25-5.24-8.73-4.24-2,.42-3.84,1.87-3.38,3.93.39,1.71,1.26,2.24,4.74,2.89l6.08,1.07c1.42.26,4.68,1.45,5.47,4.92.64,2.8-1,7.19-8,8.75-3.59.81-5.56.13-6.71.34-.81.21-.88.83-.9,1.36l-1.12.24-1.72-7.86,1.09-.24c1.47,3,4.47,6.15,9.29,5.09,4.56-1,4-4.23,3.95-4.63-.47-2.14-2.42-2.5-5.11-2.93l-2.75-.48c-7.06-1.14-7.67-3.86-8-5.36-.44-1.94-.23-6.51,7-8.13,3.05-.68,5.06,0,6.16-.27.86-.19,1-.71,1-1.35l1.14-.27,1.51,6.9-1.07.25"/><path class="cls-1" d="M350.55,437.38l-13.82,1.32-.06-.81c2.81-.47,3.73-.62,3.46-3.35l-1.63-17.11c-2.69.4-6.65.93-7,6.2l-1.12.11-.49-6.53L353.17,415l.68,6.53-1.12.11c-1.26-5.14-5.26-4.9-8-4.77l1.63,17.1c.26,2.76,1.2,2.74,4.07,2.63l.08.81"/><path class="cls-1" d="M366,425.79c5.09.09,7.12-.62,7.2-4.85.06-3.28-1.5-4.73-4.62-4.79-2.11,0-2.2.3-2.41,1.33l-.17,8.31m16.83,11.59-8-.17-7.84-10.36h-1l-.13,6.38c0,2.63.8,2.74,3.37,3.07l0,.83-13.11-.28V436c2.68-.2,3.41-.27,3.48-2.93l.28-14.4c.05-2.82-1.14-2.91-3.34-3.07v-.82l12.51.26c2.73,0,10.94.47,10.85,5.95-.09,4-4.1,5-6.22,5.46l7.64,9.45a1.87,1.87,0,0,0,1.55.65Z"/><path class="cls-1" d="M397.56,431.54l-2.91-8.35L390,430.61l7.52.93m10.8,9.11-12.49-1.56.1-.79c2.42.1,3.12.17,3.23-.92.11-.85-.81-3.4-1.24-4.5l-8.67-1.11c-1.35,2.21-2.14,3.47-2.2,4-.15,1.19,1.69,1.53,3,1.77l-.1.83-7.82-1,.08-.83c2.12,0,2.8-1,4.25-3.33l10.76-16.64,1.09.14,6.47,18.1c1.31,3.68,1.79,4.87,3.67,5Z"/><path class="cls-1" d="M431,445.27l-22.08-4.06.13-.79c2.2.15,3.36.26,3.72-1.69l2.82-15.54c.36-2.12-1.2-2.48-2.86-2.88l.1-.81L426.14,422l-.15.79c-2.67-.39-3.88-.55-4.37,2.25l-2.73,15.16c-.28,1.52.51,1.94,3.08,2.41,5.76,1,8.39-1.2,10.8-4.51l1.11.2-2.9,7"/><path class="cls-1" d="M445.64,448.53l-13.31-2.79.17-.79c2.07.28,3.61.47,4-1.51L439.7,428c.44-2.09-1.32-2.54-3.07-3l.17-.78,13.32,2.76-.17.83c-1.81-.3-3.62-.69-4.07,1.49l-3.21,15.45c-.42,2,1.09,2.47,3.14,3l-.17.79"/><path class="cls-1" d="M461.65,443.13l-3.1-8.29-4.44,7.5,7.54.79m11,8.88-12.51-1.3.07-.82c2.41.09,3.12.13,3.23-.94.07-.89-.9-3.42-1.33-4.5l-8.71-.89c-1.32,2.22-2.09,3.49-2.13,4-.13,1.22,1.73,1.5,3,1.7l0,.83-7.88-.83.1-.82c2.12,0,2.76-1.09,4.17-3.37l10.4-16.9,1.09.12,6.88,18c1.38,3.64,1.9,4.8,3.75,4.93Z"/><path class="cls-1" d="M366.52,190.35c-2.28,0-5.38,1.57-5.38-1.14,0-3.84,2.64-3,4.89-3s5.86-.84,5.86,3c0,2.71-3.07,1.14-5.37,1.14m6.77-1.48c0-7.86-4.37-.52-6.81-7.16-1.77,5.61-7,.88-7,6.94,0,2.31.59,3.63,1.71,4.39v2.34a1.07,1.07,0,0,0,1.09,1.07h8.33a1.05,1.05,0,0,0,1.06-1.07v-2.53a5,5,0,0,0,1.68-4"/><path class="cls-1" d="M441.47,285a3.18,3.18,0,1,0-3.56-3.16,3.38,3.38,0,0,0,3.56,3.16"/><path class="cls-1" d="M424.59,169a19.86,19.86,0,0,0-1.69,3.38,1.73,1.73,0,1,0,3.44,0c0-.06-1.75-3.38-1.75-3.38"/><path class="cls-1" d="M309.51,169a19.85,19.85,0,0,0-1.69,3.38,1.73,1.73,0,1,0,3.44,0c0-.06-1.75-3.38-1.75-3.38"/><path class="cls-1" d="M338.29,169a19.75,19.75,0,0,0-1.71,3.38,1.83,1.83,0,0,0,1.72,1.88,1.8,1.8,0,0,0,1.72-1.88c0-.06-1.73-3.38-1.73-3.38"/><path class="cls-1" d="M367.05,169a20,20,0,0,0-1.66,3.38,1.78,1.78,0,0,0,1.69,1.88,1.82,1.82,0,0,0,1.72-1.88c0-.06-1.74-3.38-1.74-3.38"/><path class="cls-1" d="M395.83,169a19.85,19.85,0,0,0-1.69,3.38,1.81,1.81,0,0,0,1.73,1.88,1.79,1.79,0,0,0,1.69-1.88c0-.06-1.73-3.38-1.73-3.38"/><path class="cls-1" d="M309.56,208.46a18.77,18.77,0,0,1,1.7,3.36,1.72,1.72,0,1,1-3.44,0c0-.07,1.74-3.36,1.74-3.36"/><path class="cls-1" d="M309.56,246.83a19.93,19.93,0,0,1,1.7,3.36,1.73,1.73,0,1,1-3.44,0c0-.06,1.74-3.36,1.74-3.36"/><path class="cls-1" d="M314.17,277.19a20.7,20.7,0,0,1,1.7,3.37,1.72,1.72,0,1,1-3.42,0s1.72-3.37,1.72-3.37"/><path class="cls-1" d="M338.3,293.34a19.5,19.5,0,0,1,1.68,3.38,1.71,1.71,0,1,1-3.41,0c0-.07,1.73-3.38,1.73-3.38"/><path class="cls-1" d="M426.06,208.46a18.82,18.82,0,0,0-1.69,3.36,1.79,1.79,0,0,0,1.71,1.86,1.77,1.77,0,0,0,1.71-1.86c0-.07-1.73-3.36-1.73-3.36"/><path class="cls-1" d="M426.06,246.83a20,20,0,0,0-1.69,3.36,1.84,1.84,0,0,0,1.71,1.91,1.82,1.82,0,0,0,1.71-1.91c0-.06-1.73-3.36-1.73-3.36"/><path class="cls-1" d="M421.44,277.19a20.87,20.87,0,0,0-1.66,3.37,1.8,1.8,0,0,0,1.71,1.9,1.83,1.83,0,0,0,1.71-1.9s-1.75-3.37-1.75-3.37"/><path class="cls-1" d="M397.32,293.34a19.45,19.45,0,0,0-1.69,3.38,1.73,1.73,0,1,0,3.44,0c0-.07-1.75-3.38-1.75-3.38"/><path class="cls-1" d="M367.94,310.48a20.42,20.42,0,0,0-1.67,3.35,1.71,1.71,0,1,0,3.41,0c0-.05-1.74-3.35-1.74-3.35"/><path class="cls-1" d="M414.76,253.22c.36.53,1.26.73,2.42.36l1.09-3.13c.06-.21-1.26-1.45-2.07-1.26-3.07.75-6.32,1.11-8.13,4A6,6,0,0,0,411,258c1.09-.34,1.26.72,2,1.28a1.29,1.29,0,0,1-1.26,1.65c-2.18-2.2-6,.72-7.6-2,.71-2.76,2.18-5.87-.2-8.41.2-.54,1.09-1.09.54-1.65-.9-2.52-3.61-.53-5.23-.53-2.69-.36-4.89,1.1-6.51,3.27a5,5,0,0,0,1.45,2.76c.7-.21,1.07,0,1.26.72l-1.81,1.09a3.66,3.66,0,0,1,.72,2c-1.3.53-2.54-1.28-3.1-2.19,0-1.45.19-4-1.79-4.39a8,8,0,0,0-1.56.53,5.05,5.05,0,0,0-.74,3,12.12,12.12,0,0,0,.72,3.24s5.57,4.13,6.83,6.7c-1.66,3.27-1.66,7.82-5.44,9.65-1,.72-1,1.84-1,2.94l.89.72c2.33-1.27,6.85-1.63,6.52-5.65A14.29,14.29,0,0,1,399,268a3.74,3.74,0,0,1,4.14,2,7.11,7.11,0,0,1-4.89,5.45c-.34.39-.17.92-.17,1.45.7,1.29,2.71.76,3.82.58,3.05-2,4.33-5.67,7-6.76.34,1.83-3.61,2.37-1.09,4.19,1.63-.37,3.8.19,4.91-2-1.3-3.07,4.29-4.55.88-7.29,0-2.74,2.88-3.82,2.71-6.71-1.09-2.94-4.53-2.94-5.42-5.67a3.94,3.94,0,0,1,3.8,0"/><path class="cls-1" d="M282.56,286.4a3.2,3.2,0,1,0-3.59-3.19,3.4,3.4,0,0,0,3.59,3.19"/><path class="cls-1" d="M96,395.41A3.4,3.4,0,1,0,92.43,392,3.48,3.48,0,0,0,96,395.41"/><path class="cls-1" d="M214.22,421.55c.15,0,.21,0,.21-.16a.12.12,0,0,0-.13-.14c-.07,0-.07,0-.08,0v.28m.49.31h-.23l-.23-.28h0v.17c0,.07,0,.07.1.09h-.38c.07,0,.09,0,.09-.09v-.42c0-.09,0-.09-.09-.09v0h.36c.08,0,.32,0,.32.17a.17.17,0,0,1-.18.16l.22.27,0,0Z"/><path class="cls-1" d="M215.22,421.41a.23.23,0,0,0-.23-.15s-.11,0-.11.08,0,.08.11.1l.16.08s.14.09.14.19-.09.17-.3.17h-.26v-.2h0a.23.23,0,0,0,.22.19c.15,0,.15-.08.15-.11s-.06-.07-.13-.11l-.08,0c-.19-.1-.19-.18-.19-.21s0-.17.23-.17a1.37,1.37,0,0,1,.2,0s0,0,0,0h0v.19h0"/><path class="cls-1" d="M216.41,421.25a.07.07,0,0,0-.08.05l-.22.55h0l-.19-.44-.22.44h0l-.25-.55s0-.05-.08-.05v0h.33v0s-.07,0-.07,0,0,0,0,0l.14.35.13-.29,0-.11h-.09v0h.36v0c-.06,0-.1,0-.1,0a.13.13,0,0,0,0,.07l.13.33.13-.35v0s-.05,0-.08,0v0h.2v0"/><path class="cls-1" d="M216.71,421.59h.05s0-.08,0-.09c0-.2,0-.26-.09-.26s-.08.06-.08.14,0,.21.1.21m-.27.27a.32.32,0,0,0,.31-.24.07.07,0,0,0,0,0h-.07a.19.19,0,0,1-.2-.2.21.21,0,0,1,.25-.21c.12,0,.26,0,.26.27s-.14.36-.5.37Z"/><path class="cls-1" d="M217.1,421.43a.68.68,0,0,1,.25,0,.21.21,0,0,1,.11.18c0,.13-.11.22-.33.22s-.15,0-.15-.07a.06.06,0,0,1,.06-.05c.07,0,.15.06.21.06s.13,0,.13-.09-.08-.1-.14-.11a.6.6,0,0,0-.23,0l.1-.33h.35l0,.12h-.33v.09"/><path class="cls-1" d="M430.42,267.21c-.69,7.67-3.32,14.07-8.61,17.67l-50.08,31.86h-.26a6.19,6.19,0,0,1-7.78-.07l-50-31.8c-5.33-3.6-7.91-10-8.62-17.67V168H430.42v99.26m3.73-102.81v-.09H301.36v.09h0l.09,101.45c0,10.35,4.39,19.39,10.46,22.18L363,320.46a6.16,6.16,0,0,0,8.81.46L423.63,288c6.06-2.8,10.43-11.84,10.43-22.18l.13-101.45Z"/><path class="cls-1" d="M385.64,312.28l1.62-.79a11.27,11.27,0,0,0-1.62.79"/><path class="cls-1" d="M272.83,444.71,268,437.27l-2.71,8.28,7.53-.85M285.49,451,273,452.41l-.08-.82c2.39-.42,3.06-.55,2.93-1.6-.08-.89-1.59-3.11-2.26-4.1l-8.67,1a20.73,20.73,0,0,0-1.24,4.37c.15,1.22,2,1.09,3.32,1l.09.82-7.83.89-.1-.78c2.06-.52,2.46-1.68,3.36-4.23L269,430.25l1.09-.14,10.56,16c2.15,3.29,2.88,4.31,4.73,4Z"/><path class="cls-1" d="M500.41,410.7c-1.69,3.47-4.37,6-8.18,6.54.17-4.62,4.37-7.87,2.86-13-2.47-3.64-7.43-4.79-12-3.85-1.73,1.17-.94,3.07-1.53,4.82l-.77,6.31c-3.8,0-4-3.44-5.15-6.14.2-4,1.92-8.06,5.92-10a13.22,13.22,0,0,1,11.06.39c2.47.6,5.33,1.73,6.27,4,2.88,2.7,2.1,7.46,1.52,10.92M485,412.62c2.11-2.08-.56-14.2,5.34-6.33,0,1.55.21,3.85-1.33,5-1,.78-2.46,2.32-4,1.34m2.11,4.81c.17,3.07-2.66,2.31-4.2,3.46h-4.56c-1-1.54-.57-3.85-.57-5.37,3,.57,6.48.57,9.32,1.91m5.32,23.41c-1.5,1.92-.17,5-2.09,6.72,0,3.44-2.85,5.17-5.34,6.52-22.65,5-44.95-2.67-66.86-6.52-30.68-6.72-66.49-8.62-97.74-1.56-14.67,2.7-28.94,6.17-43,10.18-8.79,1.13-18.3,2.5-26.68-.19-6.87-3.27-4-12.09-6.11-18.24.39-4.81-1.31-8.63-1.5-13.23a11.23,11.23,0,0,1-.77-5c2.85.4,5.71,2.51,8.77,3.29,16,3.06,30.28-2.12,45.15-4.79a326.89,326.89,0,0,1,44-6.75c17.15-.17,34.68-1.14,51.07,1.74,5.32.21,9.91,1.53,15,1.91,10.69,1.36,20.61,4.24,31.45,5,1.71.59,3.8.59,5.72,1,17.15,2.68,36.36,7.47,52.76,0,0,6.89-2.84,13.22-3.82,19.95m-96.76,14c.94,2.69,2.67,5.19,1.71,8.43-1.88,3.64-5.7,3.64-9.14,4.42a5.79,5.79,0,0,1-4.38-1.34,2,2,0,0,0-.75-1.93c.56-2.48-4.41-5-1-7.12,3-2.86,10.25-9.37,13.52-2.47m4.18.76c2.29.58,2.48,3.08,2.69,5A10.36,10.36,0,0,1,396,470a10.07,10.07,0,0,1-7.45.73c4.59-.17,9.52-1.9,11.42-6.5Zm5,25.52a.76.76,0,0,0-.39.76c-5.51.22-9.14-3-13.32-5.93l-.2-1c5.17.41,9.33,3.66,13.9,6.16m-7,17.66c-.21.55-1.18.55-1.53.18-5.72-7.3-8.39-15-12-23l.75-.19c4.57,7.47,8.22,15.73,12.79,23m-9.54-4.59-.94.36c-1-.79-.6-2.88-.39-4,1.11,1,2.07,2.33,1.33,3.68m-5.34-11.55c.22,1.95,2.09,2.71,1,4.44-.39-.77-1.52-2.49-1-4.44M381.73,470h.39v.55h-.39Zm-11.06,28.19c-3.62.19-9.16,2.31-12.58-.77.19-1.53-1.52-2.29-1.33-3.84,3.05-1.15,5.7,2.49,8.57-.19,4.37.19,9-.56,13.33.36,2.13.6,5.33-3.42,5.71.6-1.52,6.36-9.13,1.95-13.71,3.85m-8.39-22.83,1-1.55A81,81,0,0,1,357,487.66c-1.15-4.61,3.63-8.26,5.33-12.27m5.34-3.68c2.49-2.67,4.77,1.55,5.71,3.68,2.87,4.2,10.3,8.05,7.46,13.78-3.65,3.27-9.38.2-13.36,2.72-2.1-.22-5.71.36-6.85-1.73,2.09-6.16,4-13.07,7-18.45m-.57-7.28h-.76l1.14-1.15c.58.4-.19.77-.38,1.15m4.36.38c.77-1.13,1.73-2.86,3-2.86,0,.2.2.39.4.58a9.68,9.68,0,0,1-3.45,2.29m2.68,2.88a1.52,1.52,0,0,1,1.73,0Zm5.15,6c-.2.36.17,1-.4,1.32l-4.39-3.44a4.66,4.66,0,0,1,4.78,2.12m-.4-11.13h-.18V462h.18Zm8-12.49c-2.31.77-4,3.46-6.3,4,1.15-2.13,4-4.23,6.3-4m-9.53-2.48c-.39-1.72,1.7-.38,2.49-1.14l5.89.36c-3.05-.36-6.88,6.72-8.38.78m-13.92,5.36c1-2.67,1.14-5,2.87-7.08a11.45,11.45,0,0,1,5.13.74c.41,3.86,5.17,9,0,12.31-1.71.74-4.17,2.49-6.08.74-2.47-2.09-2.87-4-1.91-6.7m-2.84,11.89c-.21-.76.37-1.73.56-2.67.95-1,1.91.75,2.29,1.35a2.81,2.81,0,0,1-2.84,1.32m-.21-8.81h-.19v-2.12h.19Zm-2.29-5.74c-2.47-.6-3.8-3.48-6.46-3.48,2.27-.77,4.57-.56,7.23-.2,1,1.37-.58,2.53-.77,3.68M356,465.79a32.86,32.86,0,0,1,3.05-8.05,15.86,15.86,0,0,1-3.05,8.05m-4.18,0a49.26,49.26,0,0,1-9.13-2.29c-1.92-1.93,0-4.06,0-6.18,2.67-4.2,10.28-6.32,13.9-2.47a20.45,20.45,0,0,1-4.77,10.94m1.73,5.16v.77h-.4v-1h.77a1.21,1.21,0,0,0-.77.19Zm-4.76,11.17a146.9,146.9,0,0,1-9.34,18c-.39,1-1.9,1.15-3,1.39,0-2.71,2.65-4.83,3.8-7.14,4-5.19,5.16-10.72,9.71-15.73,1.14,1.15-1.13,1.92-1.13,3.48m-18.1-1.95c4.58-1.92,9.35-5.93,14.46-4.2-3.61,2.88-9.5,4-14.46,4.2m6.86-13.24c-1-6.7,1.72-12.47,6.1-17.27,2.64-.55,5.71-1.15,8.17.38-4.94,1.37-11.23,2.52-12.37,8.84.2,2.49-.58,3.82.59,5.93,2.07,3.63,6.84,2.11,9.51,5a2.5,2.5,0,0,1-1.72,2.31c-3.24-1.91-7.24-2.69-10.28-5.19m-89.37-61.6c.58-1.52,0-3.81,2.1-4.23,1.34-.36,3.43-.36,3.63,1.18a38.82,38.82,0,0,1-1,6.72c-2.67.2-4-1.36-4.77-3.67m.58,6.46c2.86,2.11,6.86,1.15,10.29,1.73.57,2.1.57,4.78-.95,6.5-3.24-.76-7.43-.38-9.15-3.44.39-1.34-.58-3.27-.19-4.79m-8.95-5.5c.57-3.45,1.33-7.1,4.57-9.58,4.57-2.5,10.85-1.93,15,.57a7.54,7.54,0,0,1,3.07,3.65,8.6,8.6,0,0,1-2.88,8.64h-1.9c0-3.06,0-6.14,1.14-8.64-.18-2.33-2.09-2.5-3.63-3.45-3.23-1-6.1.59-8.55,1.93-1.92,2.29-3.62,5.17-2.47,8.44,1.33,2.11.18,5,.94,7.29l-.58.76c-2.27-2.47-5.31-5.18-4.75-9.6m178.75,81.57c4.57,2,13.72,4.06,20.33,4.82-.6,2.61-5.25.15-4.68,3.83-5.92-2.31-12.79-3.46-17.17-8.05.36-.24.75-.77,1.52-.6m-118.94,3.07-2.67-2.49c1.35-1.73,4.21-.77,6.29-1.93,5-1.55,10.67-3.46,16.19-2.29-5.71,4.59-13.14,5.15-19.81,6.7m205.75-87.51a20,20,0,0,0-13-11.89c-6.07-1.32-12.58-.37-16.57,4.22-6.83,5.56-2.09,14.8-1.88,22.28,0,1.5.17,2.68-1.34,3.44-27.63-2.51-53.36-9.41-80.8-12.27-6.3-1.1-12.62-.81-18.61-2.09l-7.69-.81c-23.8.78-47.61,2.13-69.91,7.88-4.76,1.53-10.09,1.92-14.86,3.63-3.42-.56-6.29,1.94-9.53,1l-6.28,1.47a4.74,4.74,0,0,1-2.09-.14c-3.06-7.86,6.08-12.64,3.23-20.32-2.48-4.42-7.43-8.63-13.15-7.86-6.48-.77-12.19,2.86-15.25,7.86-4.39,9.59,1.14,19.58,2.86,29-.38,3.08,3.06,6.52,0,9-6.09-4.21-14.1-6.53-21.54-4.41-2.26,1.15-6.46-.4-7.59,2.31,8.2,4.43,18.66,3.83,27.81,3.43,1.13-.36,1.9-.55,2.84.21.79,5-.94,11.7,2.12,16.1,3.43,4.63,9.14,5.79,14.65,6.34,17.53-.55,33.15-5.75,49.15-9.8,2.48-.17,4.38-1.5,7.06-1.5a139.94,139.94,0,0,1,27-3.67c-4,5.17-6.29,11-8,17.28-2.32,5.18,4,6,5.9,8.86-5.9,1.71-10.1,5.72-15.63,8.05-12.2-.4-22.49,4.2-33.92,5.55-.18,2.5,4,1.71,4.39,4.21-.58,1.73-2.3,1.91-3.62,2.88-.19,1.15,0,1.34,1.14,1.56,1.14-1.39,3.61-.4,4.75-1.75,3.8,0,7-1.16,10.68-1.33,3.23-1.36,6.83-1.56,9.69-3.86,4-1.13,6.49-3.82,10.49-5,5.71,0,10.85-1.93,16.17-2.29v1.15c-4.36,7.06-8.93,14.39-13.51,21.09a2.15,2.15,0,0,0,1.34,3.07,9.82,9.82,0,0,0,7.42-1.15c4-6.91,7.62-13.45,10.85-20.53,1.35-6.54,6.11-10,10.87-14.39.77-.39,1.91-1.54,2.67-.39a87.72,87.72,0,0,0-9.13,13.44c-1.54,5.37-1.92,12.27,2.85,16.7,2.29,1.94,5.71,1.32,8.76,1.55,7.42-3.84,17,2.29,22.66-5,3.42-.6,4,3.44,5.91,5.37,3.25.94,6.69,4.19,9.91,1.9-.17-2.11-2.48-4-3.61-6-2.29-4.06-5.12-7.3-7.23-10.93-1-2.67-2.67-4.42-3.06-7.1,3.42,1.17,6.47,3.46,10.29,4,3.23,1.36,7.24,1.15,10.29,3.09,2.48,3.27,6.26,5.19,9.52,7.31,4.77,2.31,10.11,2.67,15,4.59,1.93.18,4.78,1.73,6.1,0a7.93,7.93,0,0,0-2.84-2.12c-.58-2.47,3.42-1.15,4.74-3.07a2.74,2.74,0,0,0-2.2-1.46c-2.75-1.45-9.53-1.94-11.33-3a41.08,41.08,0,0,1-6.66-2.09c-11.44,0-17.72-10.36-26.86-14.18,2.1-2,5.32-3.48,6.67-6.37,1.72-2.69,2.28-7.1.58-10.16-1.71-5.94-9.36-5.17-13.73-8.43l.58-.6c7.43-.36,13.9,1.35,20.58,2.69,18.28,2.52,35.26,9.4,54.3,9.78,10.47,0,23.62.58,28.74-9.56,1-6,2.13-11.9,3.07-17.87,2.29-9.57,8.56-18.42,7.6-29"/><rect class="cls-1" x="728.75" y="333.49" width="1612.14" height="6.1"/></svg>