<?xml version="1.0" encoding="UTF-8" standalone="no"?>
<svg xmlns:dc="http://purl.org/dc/elements/1.1/" xmlns="http://www.w3.org/2000/svg" xmlns:xlink="http://www.w3.org/1999/xlink" version="1.1" xmlns:cc="http://creativecommons.org/ns#" xmlns:rdf="http://www.w3.org/1999/02/22-rdf-syntax-ns#" height="70" width="70">
 <defs>
  <linearGradient id="a" x1="0" y1="0" x2="1" y2="0" gradientTransform="matrix(44.764 65.132 -65.132 44.764 522.87 812.68)" gradientUnits="userSpaceOnUse">
   <stop offset="0" stop-color="#0aafde"/>
   <stop offset="0.88" stop-color="#022f4e"/>
   <stop offset="1" stop-color="#022f4e"/>
  </linearGradient>
 </defs>
 <g transform="scale(0.7) translate(-485.07 -780.44)">
  <path fill="url(#a)" d="m485.07 830.44c0 27.614 22.384 50.001 50.001 50.001 27.614 0 49.999-22.387 49.999-50.001s-22.384-50.001-49.999-50.001c-27.617 0-50.001 22.387-50.001 50.001"/>
  <path fill="#fff" d="m567.52 848.85c0-2.6505-1.9467-4.8639-4.688-4.8639s-4.6397 2.168-4.6397 4.8185v0.0454c0 2.6505 1.941 4.8611 4.6852 4.8611 2.7413 0 4.6426-2.1652 4.6426-4.8157v-0.0454zm-4.688 7.9997c-4.7731 0-8.1983-3.5557-8.1983-7.9543v-0.0454c0-4.3985 3.4706-8.0025 8.2437-8.0025s8.1983 3.5586 8.1983 7.9571v0.0454c0 4.3957-3.4706 7.9997-8.2437 7.9997m-14.041-10.453c0-1.4586-1.0131-2.2106-2.6703-2.2106h-3.3826v4.4439h3.4479c1.6601 0 2.6051-0.88538 2.6051-2.1879v-0.0454zm-0.0624 10.188-3.3145-4.9491h-2.676v4.9491h-3.4025v-15.469h7.0717c3.6437 0 5.8344 1.9212 5.8344 5.1023v0.0454c0 2.4972-1.3451 4.0637-3.3145 4.7958l3.7799 5.5251h-3.9786zm-17.149-0.00086v-7.9514-7.5172h3.4025v7.5172 7.9514h-3.4025zm-9.4435 0.22163c-2.3412 0-4.705-0.81728-6.5609-2.4745l2.0091-2.4093c1.3934 1.1464 2.852 1.8786 4.6227 1.8786 1.3905 0 2.2276-0.55337 2.2276-1.4586v-0.0454c0-0.86268-0.53066-1.3025-3.1159-1.9666-3.113-0.79457-5.1278-1.6601-5.1278-4.7277v-0.0454c0-2.8066 2.256-4.6653 5.4145-4.6653 2.256 0 4.18 0.70945 5.7465 1.9694l-1.7679 2.5625c-1.3678-0.94781-2.7157-1.5239-4.0211-1.5239s-1.9893 0.59594-1.9893 1.3479v0.0482c0 1.0131 0.6612 1.3423 3.3372 2.029 3.1386 0.81727 4.9037 1.9467 4.9037 4.6426v0.0426c0 3.0761-2.3412 4.7958-5.6784 4.7958m-15.127 0.0437c-4.5518 0-7.9316-3.5132-7.9316-7.9543v-0.0454c0-4.3985 3.3117-8.0025 8.0649-8.0025 2.9201 0 4.6624 0.97619 6.0984 2.3894l-2.1624 2.4944c-1.1975-1.0784-2.4121-1.7452-3.9587-1.7452-2.6079 0-4.4865 2.168-4.4865 4.8214v0.0426c0 2.6505 1.836 4.8639 4.4865 4.8639 1.7708 0 2.852-0.70944 4.0665-1.8133l2.1652 2.1879c-1.592 1.6998-3.3571 2.7612-6.3424 2.7612"/>
  <path fill="#fff" d="m530.72 792.44c-1.3678 0-2.483 1.1124-2.483 2.4802v21.232c0 1.3706 1.1152 2.4802 2.483 2.4802s2.4802-1.1096 2.4802-2.4802v-21.232c0-1.3678-1.1124-2.4802-2.4802-2.4802m16.616 0c-1.3678 0-2.4802 1.1124-2.4802 2.4802v30.759c0 1.3678 1.1124 2.4802 2.4802 2.4802 1.3706 0 2.4802-1.1124 2.4802-2.4802v-30.759c0-1.3678-1.1096-2.4802-2.4802-2.4802m-33.232 11.907c-1.3706 0-2.4802 1.1096-2.4802 2.4802v14.09c0 1.3678 1.1096 2.4802 2.4802 2.4802 1.3678 0 2.4774-1.1124 2.4774-2.4802v-14.09c0-1.3706-1.1096-2.4802-2.4774-2.4802m41.542 0c-1.3678 0-2.4802 1.1096-2.4802 2.4802v14.09c0 1.3678 1.1124 2.4802 2.4802 2.4802s2.4774-1.1124 2.4774-2.4802v-14.09c0-1.3706-1.1096-2.4802-2.4774-2.4802m-33.234-7.1444c-1.3706 0-2.4802 1.1124-2.4802 2.4802v18.851c0 1.3678 1.1096 2.4802 2.4802 2.4802 1.3678 0 2.4802-1.1124 2.4802-2.4802v-18.851c0-1.3678-1.1124-2.4802-2.4802-2.4802m16.619 2.3814c-1.3735 0-2.4859 1.1124-2.4859 2.4802v21.232c0 1.3678 1.1124 2.4802 2.4859 2.4802 1.3678 0 2.4774-1.1124 2.4774-2.4802v-21.232c0-1.3678-1.1096-2.4802-2.4774-2.4802m10.986 33.633c0 1.4785-1.2004 2.676-2.6817 2.676-1.4785 0-2.676-1.1975-2.676-2.676s1.1975-2.676 2.676-2.676c1.4813 0 2.6817 1.1975 2.6817 2.676"/>
 </g>
</svg>
